<svg width="52" height="40" viewBox="0 0 52 40" fill="none" xmlns="http://www.w3.org/2000/svg">
<path d="M50.1288 11.4283L29.4596 1.54606C27.6778 0.6741 24.6487 0.6741 22.8668 1.54606L1.72244 11.4283C0.237578 12.1258 0 13.1141 0 13.6372C0 14.1604 0.237578 15.0905 1.72244 15.8462L3.44487 16.66V25.9609C2.37577 26.3678 1.60365 27.4142 1.60365 28.5768C1.60365 29.7394 2.37577 30.7858 3.38548 31.1927L0.712732 39.5054H8.19642L5.52368 31.1927C6.59277 30.7858 7.30551 29.7394 7.30551 28.5768C7.30551 27.3561 6.53338 26.3678 5.46428 25.9609V17.6482L8.61218 19.1596V31.2508C8.61218 31.4252 8.67158 31.5996 8.79037 31.774C9.08734 32.1228 14.611 39.5054 25.8959 39.5054C37.1809 39.5054 42.7046 32.0646 42.9421 31.774C43.0609 31.5996 43.1203 31.4252 43.1203 31.2508V19.2178L50.1288 15.8462C51.6137 15.1486 51.8513 14.1604 51.8513 13.6372C51.7919 13.1141 51.6137 12.1258 50.1288 11.4283ZM41.2197 30.9602C40.2694 32.1228 35.1615 37.7033 25.8959 37.7033C16.6304 37.7033 11.5225 32.1228 10.5722 30.9602V19.9735L22.8668 25.7284C23.7577 26.1353 24.9456 26.3678 26.1335 26.3678C27.3808 26.3678 28.5687 26.1353 29.4596 25.6703L41.2197 20.0316V30.9602ZM49.2973 14.2185L42.17 17.6482C41.873 17.6482 41.6355 17.7645 41.5167 17.997L28.6281 24.1007C27.3808 24.7402 24.9456 24.7402 23.639 24.1007L7.78066 16.66L26.0147 14.5673C26.5493 14.5092 26.9056 14.0441 26.8463 13.5791C26.7869 13.0559 26.3117 12.7071 25.8365 12.7653L4.69215 15.2068L2.55396 14.2185C2.01941 13.986 1.90062 13.6954 1.90062 13.6954C1.90062 13.6372 2.01941 13.4047 2.55396 13.1722L23.6984 3.23185C24.3517 2.94119 25.2426 2.7668 26.1335 2.7668C27.0838 2.7668 28.0341 2.94119 28.6281 3.23185L49.2973 13.1141C49.8319 13.3466 49.9507 13.5791 49.9507 13.6954C49.9507 13.6954 49.7725 13.986 49.2973 14.2185Z" fill="#BCA58A"/>
</svg>
