<svg width="40" height="40" viewBox="0 0 40 40" fill="none" xmlns="http://www.w3.org/2000/svg">
<path d="M37.3557 1.49087L36.7127 1.33078C29.5875 -0.443593 22.136 -0.443593 15.0108 1.33078L14.3685 1.49087C12.881 1.86094 11.8373 3.19742 11.8389 4.73019V9.37968C8.51941 10.32 5.31889 11.6395 2.30129 13.3122L1.71831 13.6333C0.37726 14.3741 -0.284298 15.9353 0.115767 17.4142L2.05903 24.6806C3.81091 31.2023 8.6319 36.4602 14.9772 38.7703L16.9804 39.5049C19.3567 40.3594 22.0137 39.646 23.642 37.7158L25.0098 36.082C26.283 34.5671 27.328 32.8746 28.1122 31.0575C28.5331 30.8942 28.9345 30.6829 29.3081 30.4286L31.0548 29.2059C36.5862 25.3301 39.8813 19.0011 39.8846 12.247V4.73019C39.8862 3.19775 38.8428 1.86126 37.3557 1.49087ZM23.9873 35.2238L22.6192 36.859C21.3521 38.3601 19.2856 38.915 17.4372 38.2499L15.434 37.5156C9.49822 35.3542 4.98828 30.4354 3.34922 24.3347L1.4053 17.0683C1.16598 16.1821 1.56213 15.2473 2.36552 14.8032L2.94785 14.4821C5.76526 12.9199 8.747 11.6748 11.8389 10.7693V12.247C11.8435 18.2284 14.4333 23.9154 18.9416 27.8459C17.7672 28.3233 16.5272 28.6213 15.2638 28.7292L10.2423 29.1364C9.93839 29.1606 9.68929 29.3875 9.63712 29.6881C9.58495 29.9887 9.74309 30.2864 10.0212 30.4113L16.6782 33.4162C18.1278 34.0732 19.8396 33.6154 20.7682 32.3223L22.225 30.2959L22.4154 30.4292C23.4258 31.1348 24.6293 31.5127 25.8618 31.5111C26.062 31.5111 26.2556 31.4856 26.4526 31.4664C25.7819 32.8117 24.9544 34.0729 23.9873 35.2238ZM20.119 28.7973C20.3013 28.931 20.479 29.0751 20.6665 29.2059L21.1288 29.5293L19.6811 31.5437C19.1236 32.3187 18.0965 32.5926 17.2269 32.1981L12.9286 30.2616L15.3714 30.0614C17.016 29.9235 18.6234 29.4957 20.119 28.7973ZM38.5491 12.247C38.5465 18.5655 35.464 24.4856 30.2895 28.1117L28.5429 29.3343C26.9315 30.4569 24.7917 30.4569 23.1806 29.3343L21.4346 28.1117C16.2599 24.486 13.1771 18.5655 13.1744 12.247V4.73019C13.1744 3.81105 13.7998 3.00994 14.6916 2.78692L15.3345 2.62618C22.2472 0.904303 29.4764 0.904303 36.389 2.62618L37.032 2.78692C37.9234 3.00994 38.5491 3.81105 38.5491 4.73019V12.247Z" fill="#BCA58A"/>
<path d="M23.3863 12.4644L24.297 11.4869C22.2093 9.4041 18.8298 9.4041 16.7421 11.4869L16.7088 11.5202L17.6863 12.4312C18.4434 11.6737 19.4724 11.2509 20.5432 11.257C21.6142 11.2636 22.6381 11.6982 23.3863 12.4644Z" fill="#BCA58A"/>
<path d="M27.4261 11.4869L27.3929 11.5202L28.3704 12.4312C29.1274 11.6737 30.1565 11.2509 31.2272 11.257C32.2983 11.2636 33.3221 11.6982 34.0704 12.4644L34.9811 11.4869C32.8933 9.4041 29.5138 9.4041 27.4261 11.4869Z" fill="#BCA58A"/>
<path d="M9.52162 22.1433C10.5656 21.8632 11.6784 22.0168 12.6074 22.5691L13.2298 21.3865C10.6749 19.9115 7.40783 20.7866 5.93245 23.3412L5.9093 23.382L6.48674 23.7158L7.08765 24.0083C7.61716 23.0862 8.49358 22.4146 9.52162 22.1433Z" fill="#BCA58A"/>
<path d="M33.0874 18.6811L28.1321 19.5826C26.631 19.8565 25.0926 19.8565 23.5915 19.5826L18.6352 18.6811C18.3359 18.6266 18.0372 18.7815 17.9097 19.058C17.7819 19.3345 17.8572 19.6622 18.093 19.8549L23.7477 24.4799C24.9789 25.4822 26.7447 25.4822 27.9759 24.4799L33.6296 19.8536C33.8654 19.6609 33.941 19.3332 33.8132 19.0567C33.6857 18.7802 33.3871 18.6253 33.0874 18.6798V18.6811ZM27.1305 23.4473C26.392 24.0495 25.3316 24.0495 24.5931 23.4473L20.9378 20.4571L23.3528 20.8959C25.0115 21.1992 26.7108 21.1992 28.3691 20.8959L30.7845 20.4571L27.1305 23.4473Z" fill="#BCA58A"/>
</svg>
