<svg width="47" height="45" viewBox="0 0 47 45" fill="none" xmlns="http://www.w3.org/2000/svg">
<path d="M31.2198 20.063C30.0585 20.063 28.7563 19.7044 27.3228 18.9877C27.1491 18.9004 27.0152 18.7492 26.9495 18.5664C26.8912 18.4027 25.5419 14.5217 27.6861 11.6516C29.2445 9.56532 32.1746 8.62563 36.3999 8.8611C36.7853 8.88227 37.0925 9.19118 37.1115 9.57742C37.1266 9.87726 37.4381 16.9545 33.8293 19.3109C33.062 19.8125 32.1901 20.063 31.2198 20.063ZM28.2858 17.7758C30.2693 18.706 31.8549 18.7972 33.0041 18.0467C35.144 16.6491 35.6067 12.5002 35.6179 10.3408C32.3072 10.26 30.0533 11.0062 28.8958 12.555C27.5185 14.3994 28.0538 16.9364 28.2858 17.7758Z" fill="#BCA58A"/>
<path d="M23.013 44.2143C21.3989 44.2143 19.7857 43.889 18.2917 43.2392L11.1479 40.1337C8.56347 39.0095 5.83081 38.2975 3.02601 38.0171L0.680031 37.7825C0.293787 37.7441 0 37.4192 0 37.0312V29.6723C0 29.5089 0.053141 29.35 0.151214 29.2195C0.326622 28.9849 4.53124 23.4919 10.9539 24.9211C14.5662 25.7238 17.4747 27.226 19.2785 28.345C20.588 29.1573 22.123 29.5863 23.7177 29.5863H30.8615C32.0928 29.5863 33.1751 30.2378 33.7804 31.2151L39.933 24.1266C41.1259 22.5337 43.0774 21.5581 45.1205 21.5581H45.5802C45.8356 21.5581 46.0732 21.6869 46.2123 21.9003C46.3519 22.1137 46.3739 22.3837 46.2715 22.617L40.7068 35.2637C39.4902 38.0296 37.0129 40.119 34.0806 40.8522L33.1016 41.0967L27.4065 43.3749C26.0049 43.9352 24.5088 44.2143 23.013 44.2143ZM1.51041 36.3477L3.17636 36.5145C6.13713 36.8104 9.02186 37.5626 11.7506 38.749L18.894 41.8545C21.4059 42.9467 24.3027 42.9895 26.8461 41.972L32.5879 39.6753C32.6199 39.6628 32.6523 39.6524 32.6856 39.6442L33.7142 39.3867C36.1972 38.7658 38.2947 36.9971 39.3243 34.6554L44.3999 23.1204C43.1003 23.3118 41.9044 24.0121 41.1078 25.0741L34.2919 32.9294C34.2928 32.9588 34.2932 32.9877 34.2932 33.0175C34.2932 34.9095 32.7538 36.4488 30.8619 36.4488H20.8948C19.5991 36.4488 18.3185 36.6566 17.0893 37.0662L16.812 36.362L16.5774 35.6444L16.6158 35.6318C17.9953 35.1721 19.4362 34.9384 20.8948 34.9384H30.8619C31.9209 34.9384 32.7832 34.0765 32.7832 33.0171C32.7832 31.9578 31.9213 31.0958 30.8619 31.0958H23.7181C21.8418 31.0958 20.0315 30.5882 18.4831 29.6278C16.7791 28.5706 14.0322 27.1522 10.6273 26.3948C5.76341 25.316 2.26346 29.0488 1.51084 29.9393V36.3477H1.51041Z" fill="#BCA58A"/>
<path d="M18.1895 11.4942C16.8506 11.4942 15.3061 11.2073 13.9581 10.2201C11.6718 8.54467 10.621 5.35492 10.8345 0.739866C10.8526 0.354054 11.1585 0.0438491 11.5443 0.020951C11.8709 0.00237326 19.6019 -0.410225 22.2032 3.49455C23.4146 5.31214 23.3153 7.69269 21.909 10.5714C21.8234 10.7463 21.6739 10.8816 21.4912 10.9485C21.3896 10.9861 19.9721 11.4942 18.1895 11.4942ZM21.2307 10.24H21.238H21.2307ZM12.3207 1.50674C12.2555 5.20327 13.1053 7.72293 14.8503 9.00177C16.9396 10.5325 19.7924 9.88183 20.6893 9.62045C21.7154 7.39371 21.8022 5.61587 20.9468 4.33185C19.3569 1.94526 14.6943 1.47865 12.3207 1.50674Z" fill="#BCA58A"/>
<path d="M24.0867 30.8307C24.0629 30.8307 24.0392 30.8294 24.015 30.8272C23.6128 30.7892 23.3116 30.4414 23.3319 30.0375C23.3764 29.1492 23.4525 28.3067 23.5557 27.5083C23.8698 22.1648 23.7078 9.72122 15.8403 6.27872C15.4584 6.11152 15.2839 5.66652 15.4511 5.28417C15.6178 4.90268 16.0641 4.72856 16.4456 4.89533C21.0819 6.92376 23.9986 11.9739 24.8786 19.4996C24.9577 20.174 25.0169 20.8389 25.061 21.4865C27.133 16.2506 30.3029 14.4006 30.4917 14.2948C30.8546 14.0896 31.3152 14.2201 31.52 14.5825C31.7234 14.9454 31.5956 15.4047 31.2339 15.6095C31.154 15.6562 26.2931 18.5733 25.073 27.5692C24.9802 29.1082 24.8462 30.0893 24.8337 30.1792C24.7814 30.5559 24.4595 30.8307 24.0867 30.8307Z" fill="#BCA58A"/>
</svg>
