<svg width="48" height="48" viewBox="0 0 48 48" fill="none" xmlns="http://www.w3.org/2000/svg">
<path d="M16.475 11.7676C16.0418 11.7676 15.6905 12.1188 15.6905 12.5521V18.8283C15.6905 19.2615 16.0418 19.6128 16.475 19.6128C16.9083 19.6128 17.2596 19.2615 17.2596 18.8283V12.5521C17.2596 12.1188 16.9083 11.7676 16.475 11.7676Z" fill="#BCA58A"/>
<path d="M18.8287 11.7676C18.3954 11.7676 18.0441 12.1188 18.0441 12.5521V18.8283C18.0441 19.2615 18.3954 19.6128 18.8287 19.6128C19.2619 19.6128 19.6132 19.2615 19.6132 18.8283V12.5521C19.6132 12.1188 19.2619 11.7676 18.8287 11.7676Z" fill="#BCA58A"/>
<path d="M33.3327 15.8644L32.8291 14.2067C32.1893 12.3236 30.1441 11.3158 28.2611 11.9556C27.2018 12.3155 26.3699 13.1474 26.01 14.2067L25.5063 15.8644C25.0825 17.2624 24.9936 18.7405 25.2467 20.1792C25.4775 21.3905 26.2465 22.4312 27.3366 23.0074L26.7726 35.617C26.697 36.3208 26.9253 37.0235 27.4002 37.5485C28.4213 38.6655 30.1547 38.7432 31.2717 37.722C31.3321 37.6668 31.39 37.6089 31.4452 37.5485C31.9094 37.0384 32.1373 36.3563 32.0728 35.6696L31.5056 23.0059C32.5942 22.4293 33.3619 21.3894 33.5924 20.1792C33.8455 18.7405 33.7566 17.2624 33.3327 15.8644ZM32.0469 19.9062C31.877 20.7764 31.2569 21.4905 30.419 21.7804C30.101 21.9 29.8961 22.2106 29.9114 22.5501L30.5077 35.7936C30.5351 36.0533 30.4494 36.3123 30.2723 36.5043C29.7999 36.972 29.0391 36.972 28.5668 36.5043C28.3808 36.2968 28.2964 36.0175 28.3361 35.7418L28.9276 22.5501C28.9429 22.2106 28.7381 21.9 28.4201 21.7804C27.5822 21.4905 26.962 20.7764 26.7922 19.9062C26.5823 18.7118 26.6563 17.4847 27.0079 16.3241L27.5116 14.6656C27.9013 13.6119 29.0714 13.0736 30.1252 13.4633C30.6823 13.6694 31.1215 14.1086 31.3275 14.6656L31.8312 16.3241C32.1824 17.4848 32.2564 18.7118 32.0469 19.9062Z" fill="#BCA58A"/>
<path d="M21.1821 11.7676C20.7489 11.7676 20.3976 12.1188 20.3976 12.5521V19.288L18.2739 21.4117C18.1168 21.5682 18.0332 21.784 18.044 22.0056L18.7305 35.7347C18.7469 36.0308 18.6394 36.3203 18.4339 36.5341C18.0045 36.9674 17.3051 36.9705 16.8718 36.541C16.8694 36.5387 16.8671 36.5364 16.8649 36.5341C16.6593 36.3203 16.552 36.0308 16.5683 35.7347L17.2595 22.0056C17.2705 21.7841 17.1872 21.5684 17.0304 21.4117L14.9059 19.288V12.5521C14.9059 12.1188 14.5547 11.7676 14.1214 11.7676C13.6882 11.7676 13.3369 12.1188 13.3369 12.5521V19.6128C13.3369 19.8209 13.4197 20.0203 13.5668 20.1674L15.674 22.2755L15.0048 35.6586C14.9336 37.1205 16.061 38.3633 17.5228 38.4345C18.9847 38.5057 20.2275 37.3784 20.2987 35.9165C20.303 35.8306 20.303 35.7446 20.2987 35.6587L19.6295 22.2756L21.7368 20.1675C21.8839 20.0204 21.9666 19.821 21.9666 19.6129V12.5522C21.9666 12.1188 21.6154 11.7676 21.1821 11.7676Z" fill="#BCA58A"/>
<path d="M23.5356 0C10.5373 0 0 10.5373 0 23.5356C0 36.534 10.5373 47.0713 23.5356 47.0713C36.534 47.0713 47.0713 36.534 47.0713 23.5356C47.0566 10.5434 36.5279 0.0147098 23.5356 0ZM23.5356 45.5022C11.4038 45.5022 1.56904 35.6675 1.56904 23.5356C1.56904 11.4038 11.4038 1.56904 23.5356 1.56904C35.6675 1.56904 45.5022 11.4038 45.5022 23.5356C45.4884 35.6617 35.6617 45.4884 23.5356 45.5022Z" fill="#BCA58A"/>
<path d="M26.0823 38.2621C26.0402 37.8309 25.6565 37.5154 25.2252 37.5575C25.2151 37.5585 25.205 37.5596 25.1949 37.561L25.198 37.5602C24.0935 37.6885 22.9778 37.6885 21.8733 37.5602C21.4427 37.5097 21.0529 37.8177 21.0024 38.2482C20.9519 38.6788 21.26 39.0686 21.6905 39.1191C22.9154 39.2622 24.1528 39.2622 25.3777 39.1191C25.8089 39.0771 26.1244 38.6934 26.0823 38.2621Z" fill="#BCA58A"/>
<path d="M35.5388 13.4259C35.2604 13.0939 34.7656 13.0505 34.4336 13.329C34.4326 13.3299 34.4315 13.3309 34.4303 13.3317C34.0991 13.611 34.057 14.1059 34.3362 14.4371C39.0663 20.0523 38.7045 28.3554 33.5038 33.5379C33.1969 33.8437 33.196 34.3406 33.5018 34.6476C33.8077 34.9545 34.3046 34.9554 34.6115 34.6495C40.3912 28.8918 40.7942 19.6657 35.5388 13.4259Z" fill="#BCA58A"/>
<path d="M27.2363 8.28308C24.1703 7.54828 20.9547 7.74578 18.0017 8.85029C17.5961 9.00278 17.391 9.45525 17.5435 9.86075C17.6584 10.1664 17.9507 10.3687 18.2771 10.369C18.371 10.3685 18.4639 10.3514 18.5516 10.3181C21.211 9.32365 24.1066 9.14606 26.8676 9.80819C27.2887 9.90998 27.7127 9.65119 27.8145 9.23C27.9163 8.80881 27.6575 8.38487 27.2363 8.28308Z" fill="#BCA58A"/>
<path d="M13.5321 33.4991C10.8874 30.8589 9.40513 27.2727 9.41415 23.5356C9.4064 20.55 10.3521 17.6398 12.1137 15.2291C12.374 14.8828 12.3043 14.391 11.958 14.1306C11.6116 13.8703 11.1198 13.94 10.8594 14.2863C10.8548 14.2925 10.8503 14.2987 10.8459 14.305C6.3101 20.5407 6.97753 29.148 12.4204 34.6099C12.7272 34.9169 13.2248 34.9171 13.5317 34.6103C13.8386 34.3036 13.8388 33.806 13.5321 33.4991Z" fill="#BCA58A"/>
</svg>
