<svg width="48" height="48" viewBox="0 0 48 48" fill="none" xmlns="http://www.w3.org/2000/svg">
<path d="M18.1855 32.4101H15.0234V29.248C15.0234 28.8115 14.6695 28.4575 14.2329 28.4575H11.0708C10.6342 28.4575 10.2803 28.8115 10.2803 29.248V32.4101H7.11818C6.68161 32.4101 6.32765 32.7641 6.32765 33.2007V36.3628C6.32765 36.7993 6.68161 37.1533 7.11818 37.1533H10.2803V40.3154C10.2803 40.752 10.6342 41.1059 11.0708 41.1059H14.2329C14.6695 41.1059 15.0234 40.752 15.0234 40.3154V37.1533H18.1855C18.6221 37.1533 18.976 36.7993 18.976 36.3628V33.2007C18.976 32.7641 18.6221 32.4101 18.1855 32.4101ZM17.395 35.5722H14.2329C13.7963 35.5722 13.4424 35.9262 13.4424 36.3628V39.5249H11.8613V36.3628C11.8613 35.9262 11.5074 35.5722 11.0708 35.5722H7.9087V33.9912H11.0708C11.5074 33.9912 11.8613 33.6372 11.8613 33.2007V30.0386H13.4424V33.2007C13.4424 33.6372 13.7963 33.9912 14.2329 33.9912H17.395V35.5722Z" fill="#BCA58A"/>
<path d="M47.3557 33.3388C46.7494 27.8913 41.6331 22.7948 36.1809 22.2138C35.7178 22.1627 35.2523 22.1363 34.7864 22.1347H26.0906V18.9726H24.5096V17.3915C24.5096 15.6452 23.0939 14.2294 21.3475 14.2294H17.3949C16.5216 14.2294 15.8138 13.5216 15.8138 12.6484C15.8138 11.7752 16.5216 11.0673 17.3949 11.0673H30.0433C31.7896 11.0673 33.2054 9.65162 33.2054 7.90525C33.2054 6.15888 31.7896 4.74315 30.0433 4.74315H26.0906C25.2174 4.74315 24.5096 4.03533 24.5096 3.1621V0H22.9285V3.1621C22.9285 4.90847 24.3443 6.3242 26.0906 6.3242H30.0433C30.9165 6.3242 31.6243 7.03202 31.6243 7.90525C31.6243 8.77848 30.9165 9.4863 30.0433 9.4863H17.3949C15.6485 9.4863 14.2328 10.902 14.2328 12.6484C14.2328 14.3948 15.6485 15.8105 17.3949 15.8105H21.3475C22.2207 15.8105 22.9285 16.5183 22.9285 17.3915V18.9726H21.3475V22.1347H12.6517C12.1853 22.1358 11.7192 22.1622 11.2557 22.2138C5.80104 22.7987 0.687927 27.8953 0.0831761 33.3428C-0.711004 40.283 4.27128 46.553 11.2116 47.3472C14.0377 47.6706 16.8903 47.0319 19.3087 45.5343C20.3499 44.8527 21.5401 44.4321 22.7783 44.3082C23.39 44.2599 24.0043 44.2577 24.6163 44.3019C25.8741 44.4235 27.0834 44.8489 28.1405 45.5414C34.0827 49.2138 41.877 47.3738 45.5494 41.4314C47.0437 39.0135 47.6801 36.1627 47.3557 33.3388ZM22.9285 20.5536H24.5096V22.1347H22.9285V20.5536ZM43.0355 42.1619C39.4615 46.1595 33.5346 47.0175 28.9737 44.1975C27.7 43.3681 26.243 42.8626 24.7294 42.7247C24.3958 42.7005 24.059 42.6883 23.7191 42.6883C23.3594 42.6883 23.0076 42.7034 22.6534 42.731C21.1628 42.8738 19.7288 43.3744 18.4731 44.1903C13.2752 47.4063 6.45451 45.7998 3.23846 40.6019C1.92925 38.4858 1.37134 35.9903 1.65474 33.5183C2.1749 28.8368 6.73939 24.2897 11.4256 23.7861C11.8327 23.7406 12.242 23.7171 12.6517 23.7157H34.7864C35.196 23.716 35.6053 23.7379 36.0125 23.7814C40.6979 24.2849 45.2616 28.832 45.7834 33.5135C46.1561 36.6575 45.1546 39.8095 43.0355 42.1619Z" fill="#BCA58A"/>
<path d="M34.7865 26.8765C33.0402 26.8765 31.6244 28.2922 31.6244 30.0386C31.6244 31.7849 33.0402 33.2007 34.7865 33.2007C36.5329 33.2007 37.9486 31.7849 37.9486 30.0386C37.9486 28.2922 36.5329 26.8765 34.7865 26.8765ZM34.7865 31.6196C33.9133 31.6196 33.2055 30.9118 33.2055 30.0386C33.2055 29.1653 33.9133 28.4575 34.7865 28.4575C35.6598 28.4575 36.3676 29.1653 36.3676 30.0386C36.3676 30.9118 35.6597 31.6196 34.7865 31.6196Z" fill="#BCA58A"/>
<path d="M34.7865 36.3628C33.0402 36.3628 31.6244 37.7785 31.6244 39.5249C31.6244 41.2713 33.0402 42.687 34.7865 42.687C36.5329 42.687 37.9486 41.2713 37.9486 39.5249C37.9486 37.7785 36.5329 36.3628 34.7865 36.3628ZM34.7865 41.1059C33.9133 41.1059 33.2055 40.3981 33.2055 39.5249C33.2055 38.6517 33.9133 37.9438 34.7865 37.9438C35.6598 37.9438 36.3676 38.6517 36.3676 39.5249C36.3676 40.3981 35.6597 41.1059 34.7865 41.1059Z" fill="#BCA58A"/>
<path d="M29.2529 31.6201C27.5065 31.6201 26.0908 33.0358 26.0908 34.7822C26.0908 36.5286 27.5065 37.9443 29.2529 37.9443C30.9993 37.9443 32.415 36.5286 32.415 34.7822C32.415 33.0358 30.9993 31.6201 29.2529 31.6201ZM29.2529 36.3633C28.3797 36.3633 27.6718 35.6555 27.6718 34.7822C27.6718 33.909 28.3797 33.2012 29.2529 33.2012C30.1261 33.2012 30.8339 33.909 30.8339 34.7822C30.8339 35.6555 30.126 36.3633 29.2529 36.3633Z" fill="#BCA58A"/>
<path d="M40.3199 31.6201C38.5736 31.6201 37.1578 33.0358 37.1578 34.7822C37.1578 36.5286 38.5736 37.9443 40.3199 37.9443C42.0663 37.9443 43.482 36.5286 43.482 34.7822C43.482 33.0358 42.0663 31.6201 40.3199 31.6201ZM40.3199 36.3633C39.4467 36.3633 38.7389 35.6555 38.7389 34.7822C38.7389 33.909 39.4467 33.2012 40.3199 33.2012C41.1932 33.2012 41.901 33.909 41.901 34.7822C41.901 35.6555 41.1931 36.3633 40.3199 36.3633Z" fill="#BCA58A"/>
</svg>
