<svg width="49" height="46" viewBox="0 0 49 46" fill="none" xmlns="http://www.w3.org/2000/svg">
<path d="M41.9006 3.10685C37.9955 1.31008 32.9246 3.95045 30.5965 8.99236C29.2781 11.8475 29.061 14.9461 30.0011 17.4935C30.6739 19.3162 31.8687 20.6658 33.4572 21.3966C34.2774 21.7721 35.1695 21.9644 36.0715 21.9604C39.3971 21.9604 42.9288 19.4797 44.7612 15.5111C46.0796 12.6559 46.2966 9.55722 45.3565 7.00989C44.6841 5.18764 43.4891 3.838 41.9006 3.10685ZM41.9263 4.42536C42.734 4.92548 43.3955 5.62979 43.8441 6.46722L43.6652 6.85457L41.3061 5.76924L41.9263 4.42536ZM33.7763 13.1292L34.6669 11.2004L37.0262 12.2859L36.1356 14.2148L33.7763 13.1292ZM35.6522 15.2619L34.7616 17.1907L32.4021 16.1052L33.2927 14.1764L35.6522 15.2619ZM35.1504 10.1533L36.0411 8.22449L38.4004 9.31002L37.5096 11.2392L35.1504 10.1533ZM38.0741 12.7677L40.4335 13.8532L39.5429 15.782L37.1835 14.6965L38.0741 12.7677ZM38.5576 11.72L39.4482 9.79127L41.8077 10.8768L40.917 12.8056L38.5576 11.72ZM39.9317 8.74534L40.8223 6.81689L43.1817 7.90241L42.2911 9.83115L39.9317 8.74534ZM38.0767 3.8158C38.4674 3.73453 38.8653 3.69287 39.2644 3.69142C39.8123 3.68983 40.3569 3.77508 40.8781 3.94401L40.2585 5.28741L37.8986 4.20179L38.0767 3.8158ZM37.4149 5.24897L39.7744 6.33449L38.884 8.26332L36.5245 7.1778L37.4149 5.24897ZM36.0006 4.59808L36.3675 4.76685L35.4769 6.69569L34.0613 6.04441C34.6424 5.48038 35.2943 4.99421 36.0006 4.59808ZM33.237 6.93482L34.9932 7.74286L34.1026 9.67151L32.0284 8.71718C32.3746 8.08658 32.7793 7.48984 33.237 6.93482ZM31.5203 9.75311L33.6191 10.7192L32.7285 12.648L30.8511 11.7842C31.0122 11.0883 31.2362 10.4085 31.5203 9.75311ZM30.6495 15.2989C30.5538 14.522 30.5528 13.7363 30.6466 12.9591L32.245 13.6945L31.3544 15.6233L30.6495 15.2989ZM33.429 20.0767C32.6215 19.576 31.9603 18.8713 31.512 18.0335L31.9188 17.1527L34.2781 18.2382L33.429 20.0767ZM37.2768 20.6902C36.348 20.8912 35.3827 20.8459 34.4768 20.5589L35.3259 18.7202L37.6852 19.8057L37.2768 20.6902ZM38.1688 18.7583L35.8093 17.6732L36.7 15.7443L39.0594 16.8299L38.1688 18.7583ZM39.9207 19.5644L39.2165 19.2404L40.1071 17.3116L41.7035 18.046C41.1718 18.6214 40.5733 19.1313 39.9207 19.5648V19.5644ZM42.4678 17.1283L40.5907 16.265L41.4813 14.3362L43.5825 15.3029C43.2675 15.9442 42.8946 16.5553 42.4683 17.1287L42.4678 17.1283ZM44.0423 14.2448L41.9642 13.2887L42.8549 11.3599L44.6181 12.1712C44.4914 12.8789 44.2988 13.5732 44.0428 14.245L44.0423 14.2448ZM44.7617 10.9673L43.3384 10.3125L44.229 8.38376L44.5993 8.55407C44.7596 9.34798 44.8143 10.1596 44.7621 10.9678L44.7617 10.9673Z" fill="#BCA58A"/>
<path d="M42.9967 0.733316C37.9957 -1.56748 31.5415 1.72724 28.6095 8.07804C26.9666 11.6362 26.7037 15.5184 27.8886 18.7289C28.4977 20.3795 29.4429 21.729 30.6638 22.7153L28.3725 27.6778L28.1238 27.6247C27.8532 27.5667 27.5783 27.5307 27.3019 27.5171L26.8816 26.9079C26.541 26.4152 26.395 25.8139 26.4718 25.2199C26.5851 24.3435 26.3697 23.4563 25.8674 22.7293L13.1882 4.35752C12.6314 3.5538 11.7789 3.00333 10.8172 2.82654C9.85559 2.64975 8.86307 2.86103 8.0568 3.41416C7.65781 3.68824 7.3168 4.03832 7.05328 4.44437C6.78976 4.85041 6.60891 5.30444 6.52107 5.78046C6.43324 6.25648 6.44016 6.74516 6.54142 7.2185C6.64269 7.69185 6.83632 8.14058 7.11122 8.53901L14.5259 19.2827C12.4431 18.9002 10.2967 19.0618 8.29461 19.7518C6.29249 20.4419 4.50237 21.637 3.09745 23.2215C1.69254 24.8061 0.720395 26.7264 0.27509 28.7968C-0.170214 30.8671 -0.0736046 33.0173 0.555572 35.0394C1.18475 37.0615 2.32519 38.8869 3.86654 40.3391C5.4079 41.7913 7.29799 42.821 9.35392 43.3287C11.4099 43.8364 13.562 43.8049 15.6022 43.2371C17.6423 42.6694 19.5014 41.5846 20.9995 40.0879C21.0875 40.0002 21.1733 39.911 21.2581 39.8212C20.9859 40.5967 20.9408 41.4338 21.1279 42.2342C21.315 43.0345 21.7267 43.7648 22.3145 44.3393C22.9023 44.9138 23.6418 45.3086 24.4462 45.4774C25.2507 45.6461 26.0865 45.5818 26.8556 45.292C27.6248 45.0021 28.2952 44.4988 28.7882 43.8411C29.2812 43.1835 29.5762 42.3988 29.6387 41.5793C29.7012 40.7597 29.5285 39.9394 29.1409 39.2146C28.7533 38.4898 28.1669 37.8907 27.4506 37.4876L28.3821 37.6798L29.4209 38.2425L32.0087 41.9923L31.9329 42.0443C31.79 42.1425 31.6679 42.268 31.5736 42.4134C31.4792 42.5589 31.4145 42.7215 31.3831 42.892C31.3516 43.0625 31.3541 43.2376 31.3904 43.4071C31.4267 43.5767 31.496 43.7374 31.5945 43.8801C32.0005 44.4665 32.6223 44.8682 33.3238 44.9972C34.0252 45.1263 34.7493 44.9722 35.3374 44.5687L36.8541 43.5257C37.1715 43.3071 37.4383 43.0229 37.6364 42.6923L38.2803 43.0411C38.9356 43.3971 39.7028 43.487 40.4227 43.2922L42.9289 42.6177C43.0793 42.5773 43.2177 42.5012 43.3324 42.3958C43.4472 42.2904 43.5347 42.1589 43.5877 42.0124C43.6407 41.866 43.6575 41.7089 43.6368 41.5545C43.616 41.4001 43.5583 41.253 43.4685 41.1257L41.5658 38.4281L45.1254 36.924C45.1294 36.9223 45.1333 36.9205 45.1373 36.9188C45.2831 36.8534 45.4104 36.7529 45.5079 36.6262C45.6054 36.4996 45.67 36.3508 45.6959 36.1931C45.7218 36.0354 45.7083 35.8738 45.6565 35.7226C45.6046 35.5714 45.5162 35.4355 45.399 35.3268L42.8593 32.846L45.6471 31.0692C45.7794 30.9849 45.8893 30.8696 45.9672 30.7334C46.0451 30.5971 46.0886 30.444 46.0941 30.2871C46.0996 30.1303 46.0669 29.9745 45.9987 29.8331C45.9305 29.6917 45.829 29.5691 45.7028 29.4757L43.6482 27.9543C43.0887 27.5396 42.3989 27.3397 41.7044 27.3911L32.6024 27.9788L34.2683 24.3706C34.7603 24.4596 35.2593 24.5041 35.7593 24.5037C39.9891 24.5037 44.4515 21.403 46.7498 16.4256C48.3928 12.8674 48.6556 8.98527 47.4707 5.77474C46.6022 3.42377 45.0557 1.68072 42.9967 0.733316ZM27.3521 28.6766L25.7817 35.9977C25.2558 35.94 24.5012 35.7959 24.0152 35.183C24.4119 33.9553 24.6132 32.6728 24.6118 31.3826C24.6116 30.9355 24.5875 30.4889 24.5395 30.0444C24.8391 29.1405 26.0404 28.5771 27.3521 28.6766ZM24.7541 36.9704C24.0739 37.062 23.4255 37.3154 22.8635 37.7093C23.1252 37.2756 23.3595 36.8259 23.5651 36.3628C23.9171 36.6425 24.3213 36.849 24.7541 36.9704ZM14.1201 20.3821C14.8287 20.4991 15.5244 20.684 16.1976 20.934C16.3209 20.9804 16.4563 20.9832 16.5814 20.9419C16.7065 20.9006 16.8137 20.8178 16.8852 20.7072V20.7065C16.9317 20.6342 16.9615 20.5524 16.9724 20.4671C16.9832 20.3817 16.9748 20.2951 16.9479 20.2134C16.9209 20.1318 16.876 20.0572 16.8165 19.9951C16.7569 19.933 16.6843 19.8851 16.6038 19.8547C16.4802 19.8087 16.3558 19.7654 16.2311 19.7235L8.06055 7.8835C7.87175 7.60988 7.73878 7.3017 7.66925 6.97661C7.59972 6.65152 7.595 6.31592 7.65535 5.989C7.7157 5.66209 7.83995 5.35029 8.02097 5.07146C8.20199 4.79262 8.43623 4.55224 8.71028 4.36406C9.26472 3.98377 9.94719 3.8385 10.6084 3.96005C11.2697 4.08159 11.8559 4.46005 12.2389 5.01264L24.9174 23.3845C25.258 23.8772 25.404 24.4787 25.3271 25.0727C25.2139 25.949 25.4292 26.8362 25.9316 27.563L25.9783 27.6303C25.3471 27.7662 24.7592 28.0557 24.2667 28.4732C23.7344 26.2761 22.6035 24.2697 20.9995 22.6767C20.7605 22.4381 20.5142 22.2115 20.2605 21.9969C20.203 21.9456 20.1358 21.9063 20.0628 21.8813C19.9899 21.8564 19.9126 21.8464 19.8357 21.8518C19.7588 21.8573 19.6838 21.8781 19.6151 21.913C19.5463 21.9479 19.4853 21.9963 19.4356 22.0552C19.3859 22.1142 19.3485 22.1825 19.3256 22.2561C19.3028 22.3298 19.2949 22.4072 19.3025 22.484C19.3101 22.5607 19.333 22.6351 19.3699 22.7028C19.4068 22.7705 19.4569 22.8302 19.5172 22.8782C19.6006 22.949 19.6823 23.0224 19.7641 23.0966L15.9203 26.9335C15.1463 26.0476 14.5823 24.9982 14.2706 23.8638C13.9589 22.7294 13.9074 21.5392 14.1201 20.3821ZM23.3076 29.5434C22.1478 29.7572 20.9548 29.7068 19.8173 29.3961C18.6797 29.0853 17.6267 28.5222 16.7367 27.7485L20.5813 23.9105C22.014 25.4861 22.9607 27.4423 23.3076 29.5434ZM12.2795 20.2302C12.5106 20.2302 12.7415 20.2375 12.9723 20.252C12.739 21.5815 12.8094 22.9466 13.1782 24.2452C13.547 25.5437 14.2046 26.742 15.1019 27.7505L12.2795 30.5677L4.79408 23.0957C6.84818 21.2464 9.51558 20.2253 12.2795 20.2302ZM1.10134 31.3826C1.09387 28.6201 2.12006 25.9547 3.97816 23.9105L11.4636 31.3826L8.65704 34.184C7.63676 33.2943 6.43153 32.6424 5.12848 32.2754C3.82543 31.9085 2.45713 31.8356 1.12249 32.0622C1.10893 31.8368 1.10134 31.6103 1.10134 31.3826ZM1.25022 33.2087C2.41249 32.9916 3.60882 33.0399 4.74978 33.3502C5.89073 33.6605 6.94679 34.2246 7.839 35.0005L3.97797 38.8547C2.54256 37.2758 1.59515 35.3149 1.25022 33.209V33.2087ZM10.4524 42.3853C8.34477 42.0418 6.38061 41.0988 4.79446 39.6691L8.65559 35.8149C9.43207 36.7032 9.99714 37.7559 10.3083 38.894C10.6195 40.032 10.6688 41.2258 10.4524 42.3856V42.3853ZM11.5991 42.5132C11.8246 41.1815 11.7508 39.8162 11.383 38.5165C11.0153 37.2167 10.3628 36.0152 9.47296 34.999L12.2795 32.1974L19.7649 39.6694C18.6612 40.6624 17.3705 41.4254 15.9684 41.9138C14.5663 42.4022 13.081 42.6061 11.5991 42.5137V42.5132ZM20.5817 38.8542L13.0965 31.3826L15.9199 28.5643C17.5621 30.0212 19.6813 30.8259 21.8767 30.8261C22.3996 30.8257 22.9215 30.7804 23.4366 30.6908C23.4506 30.9202 23.4585 31.1508 23.4585 31.3828C23.4658 34.1452 22.4397 36.8104 20.5817 38.8545V38.8542ZM28.4979 41.2487C28.4978 41.8746 28.3122 42.4865 27.9644 43.007C27.6166 43.5275 27.1223 43.9331 26.544 44.1726C25.9657 44.4122 25.3293 44.4748 24.7154 44.3527C24.1015 44.2306 23.5375 43.9292 23.0949 43.4865C22.6523 43.0439 22.3509 42.48 22.2287 41.866C22.1066 41.2521 22.1693 40.6157 22.4088 40.0374C22.6484 39.4591 23.054 38.9648 23.5745 38.617C24.0949 38.2692 24.7068 38.0836 25.3328 38.0836C26.172 38.0845 26.9765 38.4183 27.5699 39.0117C28.1633 39.6052 28.497 40.4098 28.4979 41.2489V41.2487ZM28.1407 36.4489L26.9205 36.1881L28.4872 28.8822L29.7074 29.1431L28.1407 36.4489ZM31.659 39.4547L33.9188 40.6788L32.959 41.3387L31.659 39.4547ZM36.2006 42.5754L34.6839 43.6183C34.3477 43.8489 33.9338 43.937 33.5327 43.8633C33.1317 43.7897 32.7761 43.5602 32.5438 43.2251C32.5314 43.2072 32.5226 43.187 32.518 43.1656C32.5135 43.1443 32.5131 43.1223 32.5171 43.1008C32.5211 43.0794 32.5293 43.059 32.5412 43.0407C32.5531 43.0224 32.5685 43.0067 32.5865 42.9944L35.0575 41.2953L36.6198 42.1411C36.5101 42.312 36.3676 42.4595 36.2006 42.575V42.5754ZM42.3724 41.5731L40.1228 42.1787C39.6883 42.2964 39.2251 42.2421 38.8296 42.0271L29.2381 36.832L29.6707 34.8136L39.956 38.5428C40.1994 38.6306 40.4098 38.7912 40.5587 39.0028L42.3724 41.5731ZM44.4101 35.9743L40.6182 37.5763L29.9152 33.6752L30.1625 32.5218L41.3755 33.3388C41.4811 33.3385 41.5865 33.3313 41.6911 33.3173L44.4101 35.9743ZM41.7841 28.5421C42.2046 28.51 42.6225 28.6306 42.9612 28.8817L44.7985 30.2421L42.0601 31.9876C41.8295 32.134 41.558 32.2024 41.2856 32.1828L30.4068 31.3836L30.8652 29.2465L41.7841 28.5421ZM31.292 28.0634L30.4351 28.1188L29.5281 27.9249L31.6246 23.3843C31.8634 23.5255 32.1092 23.6544 32.3612 23.7703C32.6129 23.8859 32.8704 23.9883 33.1327 24.077L31.292 28.0634ZM45.7018 15.9422C43.0356 21.7162 37.2676 24.7579 32.8433 22.7225C31.0685 21.9055 29.7292 20.3869 28.9699 18.33C27.8904 15.4045 28.1404 11.8441 29.656 8.56178C31.7604 4.0043 35.7973 1.14911 39.5806 1.14911C40.5928 1.14447 41.5939 1.36024 42.5144 1.78145C44.2893 2.59843 45.6285 4.11704 46.3878 6.1739C47.4672 9.09945 47.2173 12.6598 45.7018 15.9422Z" fill="#BCA58A"/>
<path d="M9.86909 6.37343L9.75923 6.2085C9.71781 6.14425 9.66402 6.08889 9.60101 6.04562C9.538 6.00235 9.46701 5.97204 9.39217 5.95645C9.31734 5.94087 9.24015 5.94031 9.1651 5.95482C9.09005 5.96933 9.01864 5.99862 8.955 6.04098C8.89137 6.08334 8.8368 6.13792 8.79446 6.20156C8.75211 6.2652 8.72284 6.33662 8.70835 6.41168C8.69385 6.48673 8.69442 6.56392 8.71003 6.63875C8.72563 6.71358 8.75596 6.78456 8.79924 6.84756L8.909 7.0125C8.95065 7.07625 9.00451 7.13112 9.06748 7.17395C9.13044 7.21677 9.20127 7.2467 9.27586 7.26201C9.35046 7.27732 9.42735 7.27771 9.50209 7.26314C9.57683 7.24858 9.64795 7.21936 9.71135 7.17716C9.77474 7.13497 9.82914 7.08063 9.87142 7.0173C9.91371 6.95397 9.94303 6.88289 9.95769 6.80817C9.97236 6.73344 9.97208 6.65655 9.95687 6.58194C9.94167 6.50732 9.91183 6.43645 9.86909 6.37343Z" fill="#BCA58A"/>
<path d="M10.8433 7.83778C10.7578 7.71231 10.6262 7.62564 10.4772 7.59659C10.3281 7.56754 10.1736 7.59845 10.0472 7.6826C9.92084 7.76676 9.83273 7.89737 9.80205 8.04609C9.77136 8.19481 9.80057 8.34963 9.88333 8.47694L13.9938 14.6517C14.0352 14.716 14.089 14.7714 14.152 14.8146C14.215 14.8579 14.286 14.8882 14.3608 14.9038C14.4357 14.9194 14.5129 14.9199 14.5879 14.9054C14.663 14.8909 14.7344 14.8616 14.798 14.8193C14.8616 14.7769 14.9162 14.7223 14.9586 14.6587C15.0009 14.595 15.0302 14.5236 15.0447 14.4486C15.0592 14.3735 15.0586 14.2963 15.043 14.2215C15.0274 14.1467 14.9971 14.0757 14.9538 14.0127L10.8433 7.83778Z" fill="#BCA58A"/>
</svg>
