<svg width="41" height="41" viewBox="0 0 41 41" fill="none" xmlns="http://www.w3.org/2000/svg">
<path d="M16.5433 15.1388C17.2918 15.3679 18.057 15.4815 18.8183 15.4815C20.0668 15.4815 21.3046 15.176 22.4386 14.5737C26.2064 12.5731 27.6438 7.87979 25.6426 4.11158C24.6732 2.28627 23.0511 0.947834 21.0749 0.342811C19.0989 -0.262371 17.0053 -0.0615696 15.1796 0.907817L15.1795 0.907896C11.4123 2.90947 9.975 7.60269 11.9756 11.37C12.945 13.1953 14.5671 14.5337 16.5433 15.1388ZM15.7384 1.95962L15.7384 1.9597C17.283 1.1395 19.0545 0.969907 20.7263 1.48164C22.3982 1.99344 23.7706 3.12584 24.5907 4.67023C26.2839 7.85851 25.0679 11.8294 21.8801 13.522C20.3353 14.3423 18.5641 14.512 16.8921 14.0001C15.2202 13.4882 13.8478 12.3559 13.0276 10.8115C11.3349 7.62405 12.551 3.65313 15.7384 1.95962Z" fill="#BCA58A"/>
<path d="M15.6639 9.67417H16.8779V10.8858C16.8779 11.6411 17.4913 12.2554 18.2454 12.2554H19.373C20.1283 12.2554 20.7427 11.6411 20.7427 10.8858V9.67417H21.9545C22.7098 9.67417 23.3243 9.05978 23.3243 8.30453V7.17698C23.3243 6.42174 22.7098 5.80735 21.9545 5.80735H20.7427V4.59571C20.7427 3.84047 20.1283 3.22607 19.373 3.22607H18.2454C17.4913 3.22607 16.8779 3.84047 16.8779 4.59571V5.80735H15.6639C14.9086 5.80735 14.2941 6.42174 14.2941 7.17698V8.30453C14.2941 9.05978 14.9086 9.67417 15.6639 9.67417ZM15.4852 7.17698C15.4852 7.08012 15.567 6.99826 15.6639 6.99826H17.4735C17.8023 6.99826 18.069 6.73171 18.069 6.40276V4.59563C18.069 4.49877 18.1498 4.41691 18.2454 4.41691H19.373C19.4699 4.41691 19.5517 4.49877 19.5517 4.59563V6.40276C19.5517 6.73163 19.8184 6.99826 20.1472 6.99826H21.9545C22.0514 6.99826 22.1333 7.08012 22.1333 7.17698V8.30453C22.1333 8.4014 22.0514 8.48326 21.9545 8.48326H20.1472C19.8184 8.48326 19.5517 8.74981 19.5517 9.07876V10.8859C19.5517 10.9828 19.4699 11.0646 19.373 11.0646H18.2454C18.1497 11.0646 18.069 10.9828 18.069 10.8859V9.07876C18.069 8.74989 17.8023 8.48326 17.4735 8.48326H15.6639C15.567 8.48326 15.4852 8.4014 15.4852 8.30453V7.17698Z" fill="#BCA58A"/>
<path d="M38.3365 34.892V29.9878H39.9331C40.2621 29.9878 40.5287 29.7212 40.5287 29.3923V17.4602C40.5287 16.1999 39.5022 15.1746 38.2406 15.1746C37.1862 15.1746 36.2968 15.8923 36.034 16.8647H30.667C30.3381 16.8647 30.0715 17.1312 30.0715 17.4602C30.0715 17.7891 30.3382 18.0557 30.667 18.0557H35.9548V28.797H19.8538V20.4758C19.8538 19.1413 20.9396 18.0556 22.2742 18.0556H27.9166C28.2456 18.0556 28.5121 17.789 28.5121 17.4601C28.5121 17.1311 28.2455 16.8646 27.9166 16.8646H22.2742C20.2829 16.8646 18.6627 18.4845 18.6627 20.4758V20.6365H11.5477C11.5249 19.7045 10.9581 18.8263 10.0578 18.4538C10.0414 18.4469 10.0246 18.4409 10.0077 18.4356L4.57388 16.7387V13.6726C4.57388 12.4111 3.5474 11.3848 2.28583 11.3848C1.02536 11.3847 0 12.411 0 13.6725V19.2448C0 19.5737 0.266623 19.8403 0.595495 19.8403C0.924367 19.8403 1.19099 19.5738 1.19099 19.2448V13.6725C1.19099 13.0676 1.68207 12.5756 2.28575 12.5756C2.89061 12.5756 3.38273 13.0676 3.38273 13.6725V26.0098C3.38273 26.3387 3.64935 26.6053 3.97822 26.6053H18.6626V28.7968H1.19107V21.9949C1.19107 21.666 0.924446 21.3994 0.595574 21.3994C0.266702 21.3994 7.93993e-05 21.6659 7.93993e-05 21.9949V29.3923C7.93993e-05 29.7212 0.266702 29.9878 0.595574 29.9878H2.80216V34.892C1.48143 35.1676 0.486242 36.3406 0.486242 37.7418C0.486242 39.3471 1.79236 40.6531 3.39774 40.6531C5.00311 40.6531 6.30923 39.3471 6.30923 37.7418C6.30923 36.3406 5.31396 35.1676 3.99331 34.892V33.0035H37.1454V34.892C35.8247 35.1676 34.8294 36.3406 34.8294 37.7418C34.8294 39.3471 36.1355 40.6531 37.7409 40.6531C39.3463 40.6531 40.6525 39.347 40.6525 37.7418C40.6525 36.3405 39.6572 35.1676 38.3365 34.892ZM38.2405 16.3655C38.8455 16.3655 39.3375 16.8565 39.3375 17.4602V28.7969H37.1459V17.4602C37.1459 16.8565 37.637 16.3655 38.2405 16.3655ZM9.62447 19.5637C10.0606 19.7543 10.3372 20.1811 10.3572 20.6365H4.57388V17.9863L9.62447 19.5637ZM4.57388 25.4144V21.8274H10.8699H18.6627V25.4144H4.57388ZM5.11808 37.7418C5.11808 38.6904 4.34632 39.462 3.39766 39.462C2.44899 39.462 1.67723 38.6904 1.67723 37.7418C1.67723 36.7931 2.44899 36.0214 3.39766 36.0214C4.34632 36.0214 5.11808 36.7932 5.11808 37.7418ZM3.99315 31.8126V29.9879H37.1454V31.8126H3.99315ZM37.741 39.4621C36.7923 39.4621 36.0205 38.6904 36.0205 37.7418C36.0205 36.7932 36.7923 36.0215 37.741 36.0215C38.6896 36.0215 39.4614 36.7932 39.4614 37.7418C39.4614 38.6904 38.6896 39.4621 37.741 39.4621Z" fill="#BCA58A"/>
</svg>
