<svg width="45" height="45" viewBox="0 0 45 45" fill="none" xmlns="http://www.w3.org/2000/svg">
<path d="M15.1381 38.3496C13.3235 38.3496 11.8472 39.8259 11.8472 41.6405C11.8472 43.4551 13.3235 44.9314 15.1381 44.9314C16.9528 44.9314 18.429 43.4551 18.429 41.6405C18.429 39.8259 16.9528 38.3496 15.1381 38.3496ZM15.1381 43.615C14.0494 43.615 13.1636 42.7292 13.1636 41.6405C13.1636 40.5518 14.0494 39.666 15.1381 39.666C16.2268 39.666 17.1126 40.5518 17.1126 41.6405C17.1126 42.7292 16.2268 43.615 15.1381 43.615Z" fill="#BCA58A"/>
<path d="M15.1381 42.2993C15.5016 42.2993 15.7963 42.0046 15.7963 41.6411C15.7963 41.2776 15.5016 40.9829 15.1381 40.9829C14.7746 40.9829 14.4799 41.2776 14.4799 41.6411C14.4799 42.0046 14.7746 42.2993 15.1381 42.2993Z" fill="#BCA58A"/>
<path d="M37.6917 42.2993C38.0552 42.2993 38.3499 42.0046 38.3499 41.6411C38.3499 41.2776 38.0552 40.9829 37.6917 40.9829C37.3282 40.9829 37.0335 41.2776 37.0335 41.6411C37.0335 42.0046 37.3282 42.2993 37.6917 42.2993Z" fill="#BCA58A"/>
<path d="M37.6917 38.3496C35.877 38.3496 34.4008 39.8259 34.4008 41.6405C34.4008 43.4551 35.877 44.9314 37.6917 44.9314C39.5063 44.9314 40.9826 43.4551 40.9826 41.6405C40.9826 39.8259 39.5063 38.3496 37.6917 38.3496ZM37.6917 43.615C36.603 43.615 35.7172 42.7292 35.7172 41.6405C35.7172 40.5518 36.603 39.666 37.6917 39.666C38.7804 39.666 39.6662 40.5518 39.6662 41.6405C39.6662 42.7292 38.7804 43.615 37.6917 43.615Z" fill="#BCA58A"/>
<path d="M10.8684 31.8518L15.6592 29.1354H26.4149C28.0041 29.1354 29.3339 28.003 29.6397 26.5027H36.4944C38.6008 26.5027 40.4362 25.0775 40.958 23.0369L44.9111 7.57862C44.9614 7.38161 44.918 7.17248 44.7933 7.01188C44.6686 6.85129 44.4767 6.7573 44.2735 6.7573H11.958L11.6223 5.44489C10.8035 2.23904 7.91886 0 4.60725 0H1.97454C0.885821 0 0 0.885821 0 1.97454C0 3.06325 0.885821 3.94907 1.97454 3.94907H4.60725C6.1129 3.94907 7.42417 4.96618 7.79617 6.42268L12.8513 26.1878L8.92157 28.4159C7.4784 29.233 6.58179 30.7697 6.58179 32.4263C6.58179 34.9667 8.64864 37.0335 11.189 37.0335H40.3244C41.4131 37.0335 42.299 36.1477 42.299 35.059C42.299 33.9703 41.4131 33.0844 40.3244 33.0844H11.189C10.8261 33.0844 10.5309 32.7892 10.5309 32.4263C10.5309 32.1898 10.66 31.9698 10.8684 31.8518ZM35.2646 19.0433H31.22L31.4667 14.2167H36.0051L35.2646 19.0433ZM37.3368 14.2167H41.8549L40.6206 19.0433H36.5963L37.3368 14.2167ZM35.0626 20.3597L34.3221 25.1863H30.9059L31.1527 20.3597H35.0626ZM29.9018 19.0433H25.8504L25.6034 14.2167H30.1486L29.9018 19.0433ZM31.534 12.9003L31.7808 8.07366H36.9475L36.207 12.9003H31.534ZM30.2159 12.9003H25.536L25.2891 8.07366H30.4627L30.2159 12.9003ZM24.218 12.9003H21.6127C21.2492 12.9003 20.9546 13.1949 20.9546 13.5585C20.9546 13.9221 21.2492 14.2167 21.6127 14.2167H24.2853L24.5323 19.0433H20.4877L18.8043 8.07366H23.971L24.218 12.9003ZM19.156 19.0433H15.1002L13.8657 14.2167H18.4152L19.156 19.0433ZM19.358 20.3597L20.0988 25.1863H16.6714L15.4369 20.3597H19.358ZM21.4305 25.1863L20.6897 20.3597H24.5996L24.8466 25.1863H21.4305ZM26.1647 25.1863L25.9178 20.3597H29.8345L29.5878 25.1863H26.1647ZM39.6827 22.7108C39.31 24.1682 37.9989 25.1863 36.4944 25.1863H35.6538L36.3943 20.3597H40.2839L39.6827 22.7108ZM42.1915 12.9003H37.5388L38.2793 8.07366H43.4258L42.1915 12.9003ZM17.4725 8.07366L18.2133 12.9003H13.5292L12.2947 8.07366H17.4725ZM4.60725 2.63271H1.97454C1.61157 2.63271 1.31636 2.3375 1.31636 1.97454C1.31636 1.61157 1.61157 1.31636 1.97454 1.31636H4.60725C5.99074 1.31636 7.28244 1.79472 8.30516 2.61113L7.36678 3.5496C6.59074 2.96979 5.63138 2.63271 4.60725 2.63271ZM11.189 34.4008H40.3244C40.6874 34.4008 40.9826 34.696 40.9826 35.059C40.9826 35.4219 40.6874 35.7172 40.3244 35.7172H11.189C9.3744 35.7172 7.89814 34.2409 7.89814 32.4263C7.89814 31.243 8.53886 30.1453 9.57053 29.5612L13.9383 27.0847C14.1967 26.9381 14.3249 26.6368 14.2512 26.349L9.07146 6.09675C8.9185 5.49772 8.65145 4.9524 8.29805 4.48009L9.2367 3.54144C9.74894 4.18224 10.1338 4.93625 10.3469 5.77082L15.5227 26.0076C15.5973 26.2989 15.8597 26.5027 16.1604 26.5027H28.2767C28.005 27.2689 27.273 27.8191 26.4149 27.8191H15.4856C15.3718 27.8191 15.26 27.8486 15.161 27.9048L10.2195 30.7066C9.59967 31.0573 9.2145 31.7163 9.2145 32.4263C9.2145 33.515 10.1003 34.4008 11.189 34.4008Z" fill="#BCA58A"/>
</svg>
