<svg width="27" height="27" viewBox="0 0 27 27" fill="none" xmlns="http://www.w3.org/2000/svg">
<path d="M13.0224 11.7527V17.2231C13.4916 17.2823 14.1249 17.3291 14.9692 17.3291C16.5071 17.3291 17.7607 16.9654 18.5484 16.2489C19.3007 15.5678 19.7808 14.5121 19.7808 13.1051C19.7808 11.7553 19.3106 10.8155 18.5484 10.1941C17.8221 9.5836 16.8011 9.27759 15.3225 9.27759L13.0224 9.29733V10.4232L15.4498 10.4055C17.2573 10.4055 18.2668 11.4026 18.2538 13.1508C18.2538 15.1584 17.1394 16.1902 15.2633 16.1788C14.9692 16.1788 14.6658 16.1788 14.4647 16.144V11.7522H13.0224V11.7527Z" fill="#BCA58A"/>
<path d="M9.53399 16.187C8.78012 16.187 8.0408 15.8836 7.73687 15.7007L7.39708 16.8307C7.82259 17.1092 8.64816 17.3752 9.60725 17.3752C11.5608 17.3752 12.6773 16.321 12.6773 14.9848C12.6773 13.9166 11.9011 13.1881 10.942 13.0188V12.9944C11.912 12.653 12.3972 11.975 12.3972 11.1484C12.3972 10.116 11.5608 9.21826 9.93405 9.21826C8.98742 9.21826 8.1125 9.51025 7.66413 9.82614L8.00443 10.9058C8.33175 10.687 8.97444 10.407 9.61712 10.407C10.4796 10.407 10.8822 10.8569 10.8822 11.3921C10.8822 12.1813 10.0089 12.4966 9.31526 12.4966H8.64868V13.5898H9.34072C10.2489 13.5898 11.1223 13.9903 11.1223 14.924C11.1373 15.5443 10.6744 16.187 9.53399 16.187Z" fill="#BCA58A"/>
<path d="M4.70963 5.72077L9.04009 7.11057C9.07074 7.15421 9.11958 7.18175 9.17309 7.18175C9.18972 7.18175 9.20686 7.17915 9.22401 7.17292L9.22972 7.17136L13.343 8.49154C13.3586 8.49673 13.3757 8.49933 13.3924 8.49933C13.4085 8.49933 13.4251 8.49673 13.4412 8.49154L17.3898 7.22487C17.3934 7.22487 17.3965 7.22643 17.4002 7.22643C17.4371 7.22643 17.4734 7.21292 17.501 7.18954L26.1816 4.40319C26.2486 4.38189 26.2938 4.31955 26.2938 4.24993C26.2938 4.17979 26.2486 4.11744 26.1816 4.09614L13.4402 0.00779326C13.4085 -0.00259775 13.3742 -0.00259775 13.3425 0.00779326L0.602061 4.09562C0.535558 4.11692 0.489838 4.17927 0.489838 4.24941C0.489838 4.31955 0.535558 4.38137 0.602061 4.40267L4.70963 5.72077C4.70911 5.72077 4.70911 5.72077 4.70963 5.72077ZM9.22713 6.83157L5.27594 5.56387L8.91903 4.34189L12.7523 5.65012L9.22713 6.83157ZM9.42248 4.17303L13.3368 2.86117L17.2137 4.15381L13.2552 5.48126L9.42248 4.17303ZM13.3918 8.16838L9.74564 6.99835L13.2552 5.82209L16.8661 7.05394L13.3918 8.16838ZM17.3804 6.8882L13.7586 5.65271L17.7233 4.32318L21.475 5.57374L17.3804 6.8882ZM21.6891 2.99313L25.6034 4.24941L21.9779 5.41268C21.965 5.40229 21.9504 5.39294 21.9343 5.38774L18.2315 4.15329L21.6844 2.99521C21.686 2.99521 21.6875 2.99365 21.6891 2.99313ZM21.1716 2.82688L17.7228 3.9834L13.8454 2.69075L17.2204 1.55917L21.1716 2.82688ZM13.3918 0.330434L16.7019 1.3924L13.3363 2.52086L10.0158 1.4137L13.3918 0.330434ZM9.50041 1.57891C9.50508 1.58099 9.50924 1.58515 9.51392 1.58723L12.8276 2.69179L8.91903 4.0021L5.54143 2.84922L9.50041 1.57891ZM5.04578 3.00872C5.06085 3.02119 5.07851 3.03262 5.09929 3.03989L8.41559 4.17095L4.75743 5.39761L1.17928 4.24993L5.04578 3.00872Z" fill="#BCA58A"/>
<path d="M26.3789 22.334L13.639 18.1744C13.6063 18.1635 13.5715 18.1635 13.5388 18.1744L0.798333 22.334C0.73183 22.3558 0.687149 22.4181 0.687149 22.4878C0.687149 22.5584 0.732869 22.6202 0.799372 22.6415L4.79628 23.9243C4.80823 23.93 4.8207 23.9342 4.83368 23.9357L13.5393 26.7294C13.5549 26.7351 13.572 26.7377 13.5881 26.7377C13.6047 26.7377 13.6214 26.7351 13.6375 26.7294L26.3774 22.6415C26.4439 22.6202 26.4891 22.5584 26.4896 22.4878C26.4896 22.4176 26.4449 22.3558 26.3789 22.334ZM17.398 19.7419L21.3268 21.0247L17.8287 22.2114L13.9399 20.9068L17.3767 19.7544C17.3845 19.7518 17.3902 19.7456 17.398 19.7419ZM17.3232 22.3818L13.5024 23.6775L9.57718 22.3688L13.4317 21.0767L17.3232 22.3818ZM13.5881 18.4981L16.8909 19.5767L13.4312 20.7369L10.1253 19.6281L13.5881 18.4981ZM9.61355 19.796C9.61563 19.797 9.61771 19.7986 9.61979 19.7991L12.9236 20.9068L9.06802 22.1994L5.69458 21.0751L9.61355 19.796ZM1.37244 22.4862L5.18646 21.2414C5.19373 21.245 5.19841 21.2502 5.20568 21.2523L8.55938 22.3703L4.86797 23.6079L1.37244 22.4862ZM5.38597 23.7747L9.06854 22.5402L12.9969 23.85L9.40989 25.0668L5.38597 23.7747ZM13.5881 26.4062L9.9258 25.231L13.5029 24.0178L17.1943 25.2492L13.5881 26.4062ZM17.6869 25.0917C17.6697 25.0746 17.6505 25.0601 17.6261 25.0528L14.0095 23.8469L17.8292 22.5511L21.6302 23.8261L17.6869 25.0917ZM22.1493 23.6599L18.3327 22.3797L21.7903 21.2071C21.8027 21.2029 21.8136 21.1946 21.824 21.1868L25.8038 22.4857L22.1493 23.6599Z" fill="#BCA58A"/>
<path d="M0.687149 5.54024V20.6981C0.687149 20.787 0.759367 20.8597 0.84821 20.8597C0.938092 20.8597 1.01031 20.7875 1.01031 20.6981V5.54024C1.01031 5.4514 0.938092 5.37866 0.84821 5.37866C0.759367 5.37918 0.687149 5.4514 0.687149 5.54024Z" fill="#BCA58A"/>
<path d="M4.94025 7.21776V19.0204C4.94025 19.0963 5.00155 19.1581 5.07793 19.1581C5.15378 19.1581 5.21509 19.0968 5.21509 19.0204V7.21776C5.21509 7.1419 5.15378 7.08008 5.07793 7.08008C5.00155 7.08008 4.94025 7.14138 4.94025 7.21776Z" fill="#BCA58A"/>
<path d="M26.0257 5.41406C25.9363 5.41406 25.8641 5.48628 25.8641 5.57564V20.7335C25.8641 20.8234 25.9363 20.8956 26.0257 20.8956C26.1151 20.8956 26.1878 20.8234 26.1878 20.7335V5.57512C26.1873 5.4868 26.1151 5.41406 26.0257 5.41406Z" fill="#BCA58A"/>
<path d="M21.6606 7.25316V19.0568C21.6606 19.1327 21.7219 19.1945 21.7988 19.1945C21.8746 19.1945 21.9359 19.1327 21.9359 19.0568V7.25316C21.9359 7.17731 21.8746 7.11548 21.7988 7.11548C21.7219 7.11548 21.6606 7.17679 21.6606 7.25316Z" fill="#BCA58A"/>
</svg>
