<svg width="25" height="27" viewBox="0 0 25 27" fill="none" xmlns="http://www.w3.org/2000/svg">
<path d="M24.7327 10.3544C24.7327 8.65203 24.0699 7.05164 22.8663 5.84802L18.8848 1.86652C17.6811 0.662853 16.0808 0 14.3785 0H14.3784H7.19614C6.97978 0 6.80447 0.175361 6.80447 0.391665C6.80447 0.607968 6.97978 0.78333 7.19614 0.78333H13.4976C15.1335 0.78333 16.4644 2.11426 16.4644 3.75016V5.79429C16.4644 7.15854 17.5743 8.26841 18.9385 8.26841H20.9826C22.6152 8.26841 23.9438 9.59391 23.9493 11.2252V24.2634C23.9493 25.1957 23.1909 25.9543 22.2588 25.9543H5.15091C4.37939 25.9543 3.7135 25.4404 3.51705 24.6992L3.50028 22.2833H16.2031C17.9274 22.2833 19.3302 20.8805 19.3302 19.1562V18.3095C19.3302 18.0932 19.1549 17.9178 18.9385 17.9178C18.7221 17.9178 18.5468 18.0932 18.5468 18.3095V19.1562C18.5468 20.4486 17.4955 21.4999 16.2031 21.4999H2.16298C1.40226 21.4999 0.78333 20.881 0.78333 20.1203V11.643C1.15802 11.9542 1.63899 12.1416 2.16298 12.1416H16.2031C17.4954 12.1416 18.5468 13.1929 18.5468 14.4853V16.7428C18.5468 16.9591 18.7221 17.1344 18.9385 17.1344C19.1548 17.1344 19.3301 16.9591 19.3301 16.7428V14.4853C19.3301 12.761 17.9273 11.3582 16.2031 11.3582H3.46038V2.47428C3.46038 1.54191 4.2187 0.78333 5.15081 0.78333H5.62974C5.84609 0.78333 6.0214 0.607968 6.0214 0.391665C6.0214 0.175361 5.84604 0 5.62974 0H5.15086C3.78682 0 2.67711 1.10998 2.67711 2.47428V7.81559H2.16298C0.970284 7.81559 0 8.78593 0 9.97857V20.1203C0 21.313 0.970284 22.2833 2.16298 22.2833H2.71685L2.73398 24.7518C2.73419 24.7815 2.73779 24.8111 2.74468 24.8401C3.01164 25.9573 4.00109 26.7376 5.15086 26.7376H22.2588C23.6228 26.7376 24.7325 25.6277 24.7325 24.2634L24.7327 10.3544ZM2.16298 8.59892H2.67711V11.3582H2.16298C1.40226 11.3582 0.78333 10.7393 0.78333 9.97857C0.78333 9.21786 1.40221 8.59892 2.16298 8.59892ZM20.9826 7.48508H18.9385C18.0061 7.48508 17.2477 6.72661 17.2477 5.79429V3.75016C17.2477 2.69173 16.807 1.73445 16.0995 1.05191C16.9319 1.32012 17.6946 1.78411 18.3309 2.42038L22.3124 6.40189C22.9487 7.03816 23.4126 7.80081 23.6808 8.63328C22.9983 7.92573 22.041 7.48508 20.9826 7.48508Z" fill="#BCA58A"/>
<path d="M15.7739 14.7147C15.9903 14.7147 16.1656 14.5394 16.1656 14.3231C16.1656 14.1068 15.9903 13.9314 15.7739 13.9314H13.7546C13.5383 13.9314 13.363 14.1068 13.363 14.3231V19.3053C13.363 19.5216 13.5383 19.697 13.7546 19.697C13.971 19.697 14.1463 19.5216 14.1463 19.3053V17.1587H15.6135C15.8299 17.1587 16.0052 16.9833 16.0052 16.767C16.0052 16.5507 15.8299 16.3753 15.6135 16.3753H14.1463V14.7147H15.7739Z" fill="#BCA58A"/>
<path d="M8.6194 13.9314C8.51543 13.9314 8.41568 13.9728 8.34216 14.0464C8.26873 14.12 8.22753 14.2198 8.22774 14.3238V14.3281V14.3283V19.2244C8.22774 19.2549 8.23155 19.2845 8.23818 19.3129C8.24017 19.4145 8.28137 19.5116 8.35354 19.5833C8.42691 19.6561 8.52613 19.697 8.62948 19.697H8.63094C8.6735 19.6968 9.67815 19.6929 10.0786 19.6859C10.7737 19.6738 11.3925 19.3589 11.8213 18.7994C12.2164 18.2836 12.4341 17.5786 12.4341 16.8142C12.4341 15.0899 11.4681 13.9314 10.0304 13.9314H8.6194V13.9314ZM11.6507 16.8142C11.6507 18.0276 10.9986 18.8864 10.0649 18.9027C9.82672 18.9069 9.35735 18.91 9.01979 18.9118C9.01786 18.3403 9.01462 17.2942 9.01462 16.8087C9.01462 16.4024 9.01279 15.3068 9.01169 14.7148H10.0304C10.8138 14.7147 11.6507 15.2663 11.6507 16.8142Z" fill="#BCA58A"/>
<path d="M4.3547 13.8948C4.25062 13.8948 4.15082 13.9362 4.0773 14.01C4.00429 14.0832 3.96335 14.1823 3.96309 14.2857C3.96309 14.286 3.96298 14.2862 3.96298 14.2865V19.3054C3.96298 19.5217 4.13829 19.6971 4.35465 19.6971C4.571 19.6971 4.74631 19.5217 4.74631 19.3054V17.5149C5.07134 17.5131 5.52217 17.5108 5.75216 17.5108C6.76438 17.5108 7.58787 16.6998 7.58787 15.7028C7.58787 14.7058 6.76433 13.8948 5.75216 13.8948H4.3547V13.8948ZM6.80459 15.7029C6.80459 16.2583 6.32263 16.7276 5.75221 16.7276C5.52348 16.7276 5.07891 16.7297 4.75388 16.7315C4.75211 16.3978 4.74986 15.9362 4.74986 15.7029C4.74986 15.506 4.74861 15.0253 4.74757 14.6782H5.75221C6.32263 14.6782 6.80459 15.1474 6.80459 15.7029Z" fill="#BCA58A"/>
</svg>
