<svg width="40" height="40" viewBox="0 0 40 40" fill="none" xmlns="http://www.w3.org/2000/svg">
<circle cx="20" cy="20" r="19.5" stroke="white"/>
<path d="M18.0907 12C19.2559 12 20.3966 12.3342 21.3775 12.963C22.3584 13.5918 23.1384 14.4887 23.6249 15.5475C24.1113 16.6062 24.2839 17.7823 24.122 18.9362C23.9602 20.09 23.4708 21.1733 22.7118 22.0573L28 27.3455L27.3376 28.008L22.0484 22.7188C21.3025 23.3567 20.4134 23.8049 19.457 24.0251C18.5005 24.2454 17.505 24.2312 16.5552 23.9838C15.6053 23.7364 14.7294 23.2632 14.0019 22.6043C13.2744 21.9454 12.717 21.1205 12.377 20.1997C12.037 19.279 11.9246 18.2897 12.0494 17.3162C12.1741 16.3427 12.5323 15.4137 13.0935 14.6084C13.6546 13.8031 14.402 13.1454 15.2721 12.6912C16.1422 12.2371 17.1092 11.9999 18.0907 12ZM18.0907 12.937C16.724 12.937 15.4132 13.4799 14.4468 14.4463C13.4804 15.4127 12.9374 16.7235 12.9374 18.0902C12.9374 19.457 13.4804 20.7677 14.4468 21.7342C15.4132 22.7006 16.724 23.2435 18.0907 23.2435C19.4574 23.2435 20.7682 22.7006 21.7346 21.7342C22.7011 20.7677 23.244 19.457 23.244 18.0902C23.244 16.7235 22.7011 15.4127 21.7346 14.4463C20.7682 13.4799 19.4574 12.937 18.0907 12.937Z" fill="white"/>
</svg>
