<svg width="32" height="32" viewBox="0 0 32 32" fill="none" xmlns="http://www.w3.org/2000/svg">
<circle cx="15.7618" cy="15.7618" r="15.7618" fill="#FFFEFD"/>
<g clip-path="url(#clip0_203_7)">
<path d="M19.7234 8.05213C20.5479 8.09003 21.1179 8.21121 21.6446 8.41565C22.144 8.60236 22.5961 8.89682 22.9687 9.27808C23.35 9.65073 23.6444 10.1028 23.8311 10.6022C24.0356 11.1295 24.1568 11.6989 24.1947 12.5234C24.2414 13.5456 24.2468 13.9057 24.2468 16.1234C24.2468 18.3411 24.2414 18.7012 24.1947 19.7234C24.1568 20.5479 24.0356 21.1179 23.8311 21.6453C23.6443 22.1444 23.3499 22.5963 22.9687 22.9687C22.5961 23.35 22.144 23.6445 21.6446 23.8311C21.1173 24.0356 20.5479 24.1568 19.7234 24.1947C18.7012 24.2414 18.3418 24.2468 16.1234 24.2468C13.905 24.2468 13.5449 24.2414 12.5234 24.1947C11.6989 24.1568 11.1289 24.0356 10.6015 23.8311C10.1024 23.6444 9.65052 23.3499 9.27808 22.9687C8.89682 22.5961 8.60236 22.144 8.41565 21.6446C8.21121 21.1173 8.09003 20.5479 8.05213 19.7234C8.00542 18.7026 8 18.3424 8 16.1234C8 13.905 8.00542 13.5442 8.05213 12.5234C8.09003 11.6989 8.21121 11.1289 8.41565 10.6022C8.60236 10.1028 8.89682 9.65073 9.27808 9.27808C9.65054 8.8969 10.1024 8.60244 10.6015 8.41565C11.1295 8.21121 11.6989 8.09003 12.5234 8.05213C13.5442 8.00542 13.9044 8 16.1234 8C18.3418 8 18.7026 8.00542 19.7234 8.05213ZM16.1234 9.80542C13.9301 9.80542 13.5943 9.81016 12.6053 9.85552C11.9778 9.88395 11.6014 9.96383 11.2555 10.0985C10.961 10.2136 10.7735 10.3355 10.5541 10.5541C10.3348 10.7735 10.2129 10.961 10.0985 11.2555C9.96451 11.6007 9.88395 11.9778 9.85552 12.6053C9.81016 13.5943 9.80542 13.9301 9.80542 16.1234C9.80542 18.3167 9.81016 18.6525 9.85552 19.6415C9.88395 20.269 9.96383 20.6454 10.0985 20.9907C10.2136 21.2858 10.3355 21.4733 10.5541 21.6927C10.7735 21.912 10.961 22.0338 11.2555 22.1482C11.6007 22.2823 11.9778 22.3628 12.6053 22.3913C13.595 22.4366 13.9308 22.4414 16.1234 22.4414C18.3167 22.4414 18.6518 22.4366 19.6415 22.3913C20.269 22.3628 20.6454 22.283 20.9913 22.1482C21.2858 22.0332 21.4733 21.9113 21.6927 21.6927C21.912 21.4733 22.0338 21.2858 22.1482 20.9913C22.2823 20.6461 22.3628 20.269 22.3913 19.6415C22.4366 18.6518 22.4414 18.316 22.4414 16.1234C22.4414 13.9308 22.4366 13.595 22.3913 12.6053C22.3628 11.9778 22.283 11.6014 22.1482 11.2561C22.0525 10.9901 21.8966 10.7499 21.6927 10.5541C21.4969 10.3502 21.2567 10.1942 20.9907 10.0985C20.6454 9.96451 20.2684 9.88395 19.6408 9.85552C18.6518 9.81016 18.316 9.80542 16.1227 9.80542H16.1234ZM16.1234 20.3354C15.0063 20.3354 13.935 19.8916 13.1451 19.1017C12.3552 18.3118 11.9114 17.2405 11.9114 16.1234C11.9114 15.0063 12.3552 13.935 13.1451 13.1451C13.935 12.3552 15.0063 11.9114 16.1234 11.9114C17.2405 11.9114 18.3118 12.3552 19.1017 13.1451C19.8916 13.935 20.3354 15.0063 20.3354 16.1234C20.3354 17.2405 19.8916 18.3118 19.1017 19.1017C18.3118 19.8916 17.2405 20.3354 16.1234 20.3354ZM16.1234 18.5306C16.7618 18.5306 17.3741 18.277 17.8256 17.8256C18.277 17.3741 18.5306 16.7618 18.5306 16.1234C18.5306 15.485 18.277 14.8727 17.8256 14.4212C17.3741 13.9698 16.7618 13.7162 16.1234 13.7162C15.485 13.7162 14.8727 13.9698 14.4212 14.4212C13.9698 14.8727 13.7162 15.485 13.7162 16.1234C13.7162 16.7618 13.9698 17.3741 14.4212 17.8256C14.8727 18.277 15.485 18.5306 16.1234 18.5306ZM20.3354 12.8138C20.096 12.8138 19.8664 12.7187 19.6971 12.5494C19.5278 12.3801 19.4327 12.1505 19.4327 11.9111C19.4327 11.6717 19.5278 11.4421 19.6971 11.2728C19.8664 11.1035 20.096 11.0084 20.3354 11.0084C20.5748 11.0084 20.8044 11.1035 20.9737 11.2728C21.143 11.4421 21.2381 11.6717 21.2381 11.9111C21.2381 12.1505 21.143 12.3801 20.9737 12.5494C20.8044 12.7187 20.5748 12.8138 20.3354 12.8138Z" fill="#BCA58A"/>
</g>
<defs>
<clipPath id="clip0_203_7">
<rect width="16.2468" height="16.2468" fill="white" transform="translate(8 8)"/>
</clipPath>
</defs>
</svg>
