<svg width="32" height="32" viewBox="0 0 32 32" fill="none" xmlns="http://www.w3.org/2000/svg">
<circle cx="15.7618" cy="15.7618" r="15.7618" fill="#FFFEFD"/>
<path d="M20.7713 12.9872C20.7765 13.1172 20.7785 13.2488 20.7785 13.3788C20.7785 17.3836 18.3022 22 13.7741 22C12.383 22 11.0898 21.4984 10 20.638C10.6446 20.734 11.2982 20.6726 11.9235 20.4575C12.5489 20.2424 13.1336 19.8778 13.6443 19.3844C13.1307 19.3725 12.6329 19.1633 12.2206 18.7862C11.8083 18.409 11.5021 17.8827 11.3448 17.2809C11.714 17.3659 12.0939 17.348 12.4567 17.2287C11.8995 17.0897 11.3985 16.7178 11.0386 16.1762C10.6787 15.6346 10.4821 14.9565 10.482 14.2568V14.2191C10.8238 14.4531 11.2062 14.5833 11.5972 14.5987C11.0754 14.1706 10.706 13.5136 10.5644 12.7617C10.4228 12.0099 10.5198 11.2199 10.8354 10.553C11.4536 11.4891 12.2248 12.2548 13.099 12.8003C13.9733 13.3458 14.931 13.6588 15.91 13.7191C15.8676 13.4925 15.8464 13.2606 15.8467 13.0281C15.8467 12.6304 15.9104 12.2365 16.0341 11.8691C16.1578 11.5017 16.3391 11.1678 16.5677 10.8866C16.7962 10.6054 17.0676 10.3824 17.3662 10.2303C17.6648 10.0781 17.9849 9.9999 18.308 10C18.6449 9.99933 18.9782 10.0838 19.2874 10.2483C19.5966 10.4127 19.875 10.6535 20.1054 10.9559C20.6566 10.8216 21.1852 10.573 21.6687 10.2207C21.4848 10.9223 21.1001 11.5178 20.5861 11.8965C21.0741 11.8253 21.5507 11.6646 22 11.4197C21.6699 12.0284 21.2537 12.5593 20.7713 12.9872Z" fill="#BCA58A"/>
</svg>
