<svg version="1.2" xmlns="http://www.w3.org/2000/svg" viewBox="0 0 50 64" width="50" height="64">
	<title>edukacja_marker-svg</title>
	<style>
		.s0 { fill: #bca58a } 
		.s1 { fill: #ffffff } 
	</style>
	<path id="Layer" class="s0" d="m42.7 7.4c4.7 4.7 7.3 11.1 7.3 17.7c0 5.5-1.8 10.8-5 15.1c0 0-0.7 0.9-0.8 1.1l-19.2 22.7l-19.2-22.7c-0.1-0.2-0.8-1.1-0.8-1.1c-3.2-4.3-5-9.6-5-15.1c0-6.6 2.6-13 7.3-17.7c4.7-4.7 11.1-7.4 17.7-7.4c6.6 0 13 2.7 17.7 7.4z" />
	<path id="Layer" class="s1" d="m35.1 42.6h-2v-3.1c0-1.3-0.5-2.6-1.5-3.5c-0.9-1-2.2-1.5-3.5-1.5h-6c-1.4 0-2.7 0.5-3.6 1.5c-0.9 0.9-1.5 2.2-1.5 3.5v3.1h-2v-3.1c0-1.8 0.8-3.6 2.1-5c1.3-1.3 3.1-2 5-2h6c1.8 0 3.6 0.7 4.9 2c1.4 1.4 2.1 3.2 2.1 5z" />
	<path id="Layer" class="s1" d="m14.7 18.7q0.3 0.3 0.3 0.7v9h-2v-9q0-0.4 0.3-0.7q0.3-0.3 0.7-0.3q0.4 0 0.7 0.3z" />
	<path id="Layer" fill-rule="evenodd" class="s1" d="m37.1 14.3v2.1h-5v7c0 1.9-0.7 3.7-2.1 5c-1.3 1.3-3.1 2.1-4.9 2.1c-1.9 0-3.7-0.8-5-2.1c-1.3-1.3-2.1-3.1-2.1-5v-7h-5v-2.1zm-8.5 12.7c0.9-1 1.5-2.3 1.5-3.6v-2h-10.1v2c0 1.3 0.6 2.6 1.5 3.6c0.9 0.9 2.2 1.4 3.6 1.4c1.3 0 2.6-0.5 3.5-1.4z" />
</svg>