<svg version="1.2" xmlns="http://www.w3.org/2000/svg" viewBox="0 0 45 57" width="45" height="57">
	<title>kultura_marker-svg</title>
	<style>
		.s0 { fill: #bca58a } 
		.s1 { fill: #ffffff } 
	</style>
	<path id="Layer" class="s0" d="m38.4 6.6c4.2 4.2 6.6 9.9 6.6 15.8c0 4.8-1.6 9.6-4.5 13.4c0 0-0.6 0.8-0.7 0.9l-17.3 20.3l-17.3-20.3c-0.1-0.1-0.7-0.9-0.7-0.9c-2.9-3.8-4.5-8.6-4.5-13.4c0-5.9 2.4-11.6 6.6-15.8c4.2-4.2 9.9-6.6 15.9-6.6c6 0 11.7 2.4 15.9 6.6z" />
	<path id="Layer" fill-rule="evenodd" class="s1" d="m17.7 15.4c2 0 4.5-1.9 5.9-1.9c2 0 2 1.9 2 1.9v2.5l-1.7-1c-3.2-1.6-4.5 0.1-5.2 0.9c-0.8 0.9-1 2.1-1 3.4v3c-4.9 0-4.9 4.8-4.9 4.8l4.9-1.9v5.8h-1c-6.1 0-6.8-4.1-6.8-7.5v-10c0-1.9 1.9-1.9 1.9-1.9c1.6 0 3.9 1.9 5.9 1.9zm-5.3 2.5c-0.4 0.4-0.6 0.9-0.6 1.4c0 0.5 0.2 1 0.6 1.4c0.4 0.3 0.9 0.5 1.4 0.5c0.5 0 1-0.2 1.4-0.5c0.3-0.4 0.6-0.9 0.6-1.4c0-0.5-0.3-1-0.6-1.4c-0.4-0.3-0.9-0.6-1.4-0.6c-0.5 0-1 0.3-1.4 0.6zm15.1 3.3c2 0 4.5-1.9 5.9-1.9c0 0 2 0 2 1.9v9.8c0 3.9-2 7.8-7.9 7.8c-5.9 0-7.8-3.9-7.8-7.8v-9.8c0-1.9 1.9-1.9 1.9-1.9c1.6 0 3.9 1.9 5.9 1.9zm-5.3 2.6c-0.4 0.3-0.6 0.8-0.6 1.3c0 0.5 0.2 1 0.6 1.4c0.4 0.4 0.9 0.6 1.4 0.6c0.5 0 1-0.2 1.4-0.6c0.3-0.4 0.6-0.9 0.6-1.4c0-0.5-0.3-1-0.6-1.3c-0.4-0.4-0.9-0.6-1.4-0.6c-0.5 0-1 0.2-1.4 0.6zm7.9 0c-0.4 0.3-0.6 0.8-0.6 1.3c0 0.5 0.2 1 0.6 1.4c0.3 0.4 0.8 0.6 1.3 0.6c0.6 0 1.1-0.2 1.4-0.6c0.4-0.4 0.6-0.9 0.6-1.4c0-0.5-0.2-1-0.6-1.3c-0.3-0.4-0.8-0.6-1.4-0.6c-0.5 0-1 0.2-1.3 0.6zm-2.6 12c4.9 0 4.9-4.8 4.9-4.8h-9.8c0 0 0 4.8 4.9 4.8z" />
</svg>