<svg version="1.2" xmlns="http://www.w3.org/2000/svg" viewBox="0 0 70 101" width="70" height="101">
	<title>_lokalizator_70px-ai</title>
	<style>
		.s0 { fill: #ffffff } 
		.s1 { fill: #273642 } 
	</style>
	<g id="Warstwa 1">
		<g id="&lt;Group&gt;">
			<path id="&lt;Path&gt;" class="s0" d="m54.3 69.7h-37.5l6.1-64.6h24.4z" />
			<path id="&lt;Compound Path&gt;" fill-rule="evenodd" class="s1" d="m70 35.2c0 18.6-31.7 62-33 63.8l-1.3 1.7c-0.1 0.1-0.1 0.2-0.2 0.2c-0.4 0.2-0.8 0.1-1.1-0.2l-1.3-1.7c-1.3-1.8-33.1-45.2-33.1-63.8c0-19.3 15.7-35 35-35c19.3 0 35 15.7 35 35zm-51.3 22.1h16.8v-50zm32.5 4.5h-32.5c5 2.9 10.6 4.4 16.3 4.3c5.7 0.1 11.3-1.4 16.2-4.3zm0-4.5l-12.6-37.6v37.6z" />
		</g>
	</g>
</svg>