<svg version="1.2" xmlns="http://www.w3.org/2000/svg" viewBox="0 0 45 57" width="45" height="57">
	<title>natura_marker-svg</title>
	<style>
		.s0 { fill: #bca58a } 
		.s1 { fill: #ffffff } 
	</style>
	<path id="Layer" class="s0" d="m38.4 6.6c4.2 4.2 6.6 9.9 6.6 15.8c0 4.8-1.6 9.6-4.5 13.4c0 0-0.6 0.8-0.7 0.9l-17.3 20.3l-17.3-20.3c-0.1-0.1-0.7-0.9-0.7-0.9c-2.9-3.8-4.5-8.6-4.5-13.4c0-5.9 2.4-11.6 6.6-15.8c4.2-4.2 9.9-6.6 15.9-6.6c6 0 11.7 2.4 15.9 6.6z" />
	<path id="Layer" class="s1" d="m25.9 31.1c-1.6 0.6-3.3 1-5 1c-1.9 0-3.7-0.4-5.4-1.3q-0.5 2.5-0.7 5h-2.3q0-2.8 0.6-5.6q0.5-2.8 1.8-5.3q0.7-1.2 1.7-2.2q1-1 2.2-1.8c1.6-1 3.5-1.7 5.5-2c-2.1-0.1-4.1 0.3-6 1.2c-1.9 0.8-3.6 2.2-4.8 4q-0.8 1.2-1.4 2.5c-0.6-1.7-0.8-3.5-0.5-5.3c0.3-1.4 0.9-2.7 1.8-3.8c0.8-1.1 2-1.9 3.3-2.5c2.5-1.1 5.2-1.4 7.9-1c2.5 0.3 5.1 0.1 7.5-0.8l1.5-0.4l0.1 1.4c0 0.6 1.2 13.1-7.8 16.9z" />
</svg>