<svg version="1.2" xmlns="http://www.w3.org/2000/svg" viewBox="0 0 45 57" width="45" height="57">
	<title>restauracje_marker-svg</title>
	<style>
		.s0 { fill: #bca58a } 
		.s1 { fill: #ffffff } 
	</style>
	<path id="Layer" class="s0" d="m38.4 6.6c4.2 4.2 6.6 9.9 6.6 15.8c0 4.8-1.6 9.6-4.5 13.4c0 0-0.6 0.8-0.7 0.9l-17.3 20.3l-17.3-20.3c-0.1-0.1-0.7-0.9-0.7-0.9c-2.9-3.8-4.5-8.6-4.5-13.4c0-5.9 2.4-11.6 6.6-15.8c4.2-4.2 9.9-6.6 15.9-6.6c6 0 11.7 2.4 15.9 6.6z" />
	<path id="Layer" class="s1" d="m36.4 26.8q0.3 0 0.5 0.2q0.3 0.3 0.3 0.7q0 0.3-0.3 0.6q-0.2 0.2-0.5 0.2h-2.2c0 1.9-0.6 3.7-1.7 5c-1.1 1.3-2.5 2.1-4.1 2.1h-11.6c-1.6 0-3.1-0.8-4.1-2.1c-1.1-1.3-1.8-3.1-1.8-5h-2.1q-0.3 0-0.6-0.2q-0.2-0.3-0.2-0.6q0-0.4 0.2-0.7q0.3-0.2 0.6-0.2z" />
	<path id="Layer" fill-rule="evenodd" class="s1" d="m22 13.7l0.6 0.3l0.7 0.3l-0.1 0.1q-0.3 0.7-0.4 1.4c-0.2 0.8-0.1 1.6 0.3 2c1.1 1 1 2.5 0.8 3.4q-0.2 0.9-0.6 1.8l-0.7-0.3l-0.6-0.3v-0.1q0.3-0.7 0.5-1.4c0.1-0.8 0.1-1.6-0.4-2c-1-1-0.9-2.5-0.7-3.4q0.2-0.9 0.6-1.8z" />
	<path id="Layer" fill-rule="evenodd" class="s1" d="m16.2 15.4l0.6 0.4c0.6 0.4 0.6 0.4 0.6 0.4q-0.1 0.2-0.2 0.3q-0.2 0.4-0.3 0.9c-0.2 0.6-0.1 1.1 0.3 1.5c1.2 0.8 1.1 2.1 0.9 3q-0.1 0.6-0.4 1.1q-0.2 0.2-0.3 0.5c0 0 0 0-0.6-0.4c-0.6-0.4-0.6-0.4-0.6-0.4v-0.1q0.1-0.1 0.2-0.3c0.1-0.2 0.2-0.5 0.3-0.8c0.2-0.6 0.1-1.1-0.3-1.5c-1.2-0.8-1.2-2.2-0.9-3c0.1-0.5 0.3-0.8 0.4-1.1q0.1-0.3 0.3-0.5z" />
	<path id="Layer" fill-rule="evenodd" class="s1" d="m28.6 15.4l0.6 0.4c0.6 0.4 0.6 0.4 0.6 0.4q-0.1 0.2-0.2 0.3q-0.2 0.4-0.3 0.9c-0.2 0.6-0.1 1.1 0.3 1.5c1.2 0.8 1.2 2.1 0.9 3q-0.1 0.6-0.4 1.1q-0.1 0.2-0.3 0.5c0 0 0 0-0.6-0.4c-0.6-0.4-0.6-0.4-0.6-0.4v-0.1q0.1-0.1 0.2-0.3c0.1-0.2 0.2-0.5 0.3-0.8c0.2-0.6 0.1-1.1-0.3-1.5c-1.2-0.8-1.2-2.2-0.9-3c0.1-0.5 0.3-0.8 0.4-1.1q0.1-0.3 0.3-0.5z" />
</svg>