<svg version="1.2" xmlns="http://www.w3.org/2000/svg" viewBox="0 0 45 57" width="45" height="57">
	<title>rozrywka_marker-svg</title>
	<style>
		.s0 { fill: #bca58a } 
		.s1 { fill: #ffffff } 
	</style>
	<path id="Layer" class="s0" d="m38.4 6.6c4.2 4.2 6.6 9.9 6.6 15.8c0 4.8-1.6 9.6-4.5 13.4c0 0-0.6 0.8-0.7 0.9l-17.3 20.3l-17.3-20.3c-0.1-0.1-0.7-0.9-0.7-0.9c-2.9-3.8-4.5-8.6-4.5-13.4c0-5.9 2.4-11.6 6.6-15.8c4.2-4.2 9.9-6.6 15.9-6.6c6 0 11.7 2.4 15.9 6.6z" />
	<path id="Layer" fill-rule="evenodd" class="s1" d="m36.2 31.8q-0.3 3.1-2.5 3.8q-1.4 0.5-2.8-0.3q-1.1-0.6-2.2-2c-1.3-1.5-2.7-2-6.1-2c-3.8 0-5 0.7-6.1 2c-0.9 1.1-2.3 2.5-4 2.5q-0.5 0-1.1-0.2c-2.4-0.8-3.1-4.5-1.8-10.2c1.2-5.3 3.1-8.2 5.7-9q0.9-0.2 1.8-0.2c0.8 0 1.5 0.2 2.2 0.4c0.9 0.2 1.9 0.5 3.3 0.5c1.4 0 2.4-0.3 3.3-0.5c0.7-0.2 1.4-0.4 2.2-0.4q0.9 0 1.7 0.2c2.7 0.8 4.5 3.7 5.7 9c0.7 2.7 0.9 4.8 0.7 6.4zm-15.7-7q0.3-0.2 0.3-0.6q0-0.4-0.3-0.6q-0.2-0.3-0.6-0.3h-1.8v-1.8q0-0.3-0.3-0.6q-0.3-0.3-0.7-0.3q-0.3 0-0.6 0.3q-0.3 0.3-0.3 0.6v1.8h-1.8q-0.4 0-0.6 0.3q-0.3 0.2-0.3 0.6q0 0.4 0.3 0.6q0.2 0.3 0.6 0.3h1.8v1.8q0 0.3 0.3 0.6q0.3 0.3 0.6 0.3q0.4 0 0.7-0.3q0.3-0.3 0.3-0.6v-1.8h1.8q0.4 0 0.6-0.3zm5 0.2c0.2-0.2 0.3-0.5 0.3-0.8q0-0.3-0.2-0.6q-0.2-0.3-0.5-0.4q-0.3-0.1-0.7-0.1q-0.3 0.1-0.5 0.3q-0.3 0.3-0.4 0.6q0 0.3 0.1 0.6q0.1 0.3 0.4 0.5q0.3 0.2 0.7 0.2c0.3 0 0.6-0.1 0.8-0.3zm2.5 2.4c0.2-0.2 0.3-0.4 0.3-0.7q0-0.4-0.2-0.7q-0.2-0.2-0.5-0.4q-0.3-0.1-0.7 0q-0.3 0-0.5 0.3q-0.3 0.2-0.3 0.5q-0.1 0.4 0 0.7q0.1 0.3 0.4 0.5q0.3 0.2 0.7 0.2c0.3 0 0.6-0.1 0.8-0.4zm0-4.9c0.2-0.2 0.3-0.4 0.3-0.7q0-0.4-0.2-0.7q-0.2-0.2-0.5-0.4q-0.3-0.1-0.7 0q-0.3 0-0.5 0.3q-0.3 0.2-0.3 0.5q-0.1 0.4 0 0.7q0.1 0.3 0.4 0.5q0.3 0.2 0.7 0.2c0.3 0 0.6-0.1 0.8-0.4zm2.5 2.5c0.2-0.2 0.3-0.5 0.3-0.8q0-0.3-0.2-0.6q-0.2-0.3-0.5-0.4q-0.3-0.1-0.7-0.1q-0.3 0.1-0.5 0.3q-0.3 0.3-0.3 0.6q-0.1 0.3 0 0.6q0.2 0.3 0.4 0.5q0.3 0.2 0.7 0.2c0.3 0 0.6-0.1 0.8-0.3z" />
</svg>