<svg version="1.2" xmlns="http://www.w3.org/2000/svg" viewBox="0 0 45 57" width="45" height="57">
	<title>sklepy_marker-svg</title>
	<style>
		.s0 { fill: #bca58a } 
		.s1 { fill: #ffffff } 
	</style>
	<path id="Layer" class="s0" d="m38.4 6.6c4.2 4.2 6.6 9.9 6.6 15.8c0 4.8-1.6 9.6-4.5 13.4c0 0-0.6 0.8-0.7 0.9l-17.3 20.3l-17.3-20.3c-0.1-0.1-0.7-0.9-0.7-0.9c-2.9-3.8-4.5-8.6-4.5-13.4c0-5.9 2.4-11.6 6.6-15.8c4.2-4.2 9.9-6.6 15.9-6.6c6 0 11.7 2.4 15.9 6.6z" />
	<path id="Layer" class="s1" d="m18.6 38.2c0-0.4 0.2-0.7 0.5-1c0.2-0.3 0.6-0.4 1-0.4c0.4 0 0.7 0.1 1 0.4c0.3 0.3 0.4 0.6 0.4 1c0 0.4-0.1 0.8-0.4 1c-0.3 0.3-0.6 0.5-1 0.5c-0.4 0-0.8-0.2-1-0.5c-0.3-0.2-0.5-0.6-0.5-1z" />
	<path id="Layer" class="s1" d="m28.3 38.2c0-0.4 0.2-0.7 0.4-1c0.3-0.3 0.7-0.4 1.1-0.4c0.3 0 0.7 0.1 1 0.4c0.3 0.3 0.4 0.6 0.4 1c0 0.4-0.1 0.8-0.4 1c-0.3 0.3-0.7 0.5-1 0.5c-0.4 0-0.8-0.2-1.1-0.5c-0.2-0.2-0.4-0.6-0.4-1z" />
	<path id="Layer" class="s1" d="m9 14.6q0-0.4 0.2-0.6q0.3-0.3 0.7-0.3h4.9q0.3 0 0.6 0.2q0.2 0.2 0.3 0.6l1 5h18.4q0.2 0 0.4 0q0.2 0.1 0.3 0.3q0.2 0.2 0.2 0.4q0.1 0.2 0 0.4l-2.9 13.5q-0.1 0.3-0.3 0.5q-0.3 0.3-0.6 0.3h-13.6q-0.3 0-0.6-0.3q-0.2-0.2-0.3-0.5l-3.7-18.5h-4.1q-0.4 0-0.7-0.3q-0.2-0.3-0.2-0.7z" />
</svg>