<svg width="36" height="45" viewBox="0 0 36 45" fill="none" xmlns="http://www.w3.org/2000/svg">
<path d="M18 0C13.3233 0.00552933 8.83967 1.86986 5.53273 5.18404C2.22579 8.49822 0.365521 12.9916 0.360004 17.6786C0.354403 21.5088 1.60279 25.235 3.91366 28.2857C3.91366 28.2857 4.39475 28.9205 4.47333 29.0121L18 45L31.5331 29.0041C31.6036 28.9189 32.0863 28.2857 32.0863 28.2857L32.0879 28.2809C34.3976 25.2315 35.6455 21.507 35.64 17.6786C35.6345 12.9916 33.7742 8.49822 30.4672 5.18404C27.1603 1.86986 22.6767 0.00552933 18 0Z" fill="#BCA58A"/>
<path d="M13.6182 18.3487C13.1587 18.3487 12.7095 18.485 12.3275 18.7403C11.9455 18.9955 11.6477 19.3584 11.4719 19.7829C11.2961 20.2073 11.25 20.6744 11.3397 21.1251C11.4293 21.5757 11.6506 21.9897 11.9755 22.3146C12.3004 22.6395 12.7143 22.8607 13.165 22.9504C13.6156 23.04 14.0827 22.994 14.5072 22.8182C14.9317 22.6423 15.2945 22.3446 15.5498 21.9625C15.805 21.5805 15.9413 21.1313 15.9413 20.6719C15.9413 20.0557 15.6965 19.4648 15.2609 19.0292C14.8252 18.5935 14.2343 18.3487 13.6182 18.3487Z" fill="white"/>
<path d="M23.9061 19.0125H18.5961C18.2442 19.0129 17.9067 19.1528 17.6578 19.4017C17.409 19.6506 17.269 19.988 17.2686 20.34V24.3225H9.96739V17.685H8.63989V28.305H9.96739V25.65H25.8974V28.305H27.2249V22.3313C27.2238 21.4514 26.8738 20.6079 26.2517 19.9857C25.6295 19.3635 24.786 19.0136 23.9061 19.0125Z" fill="white"/>
<path d="M21.2511 12.375H18.5961V9.72H17.2686V12.375H14.6136V13.7025H17.2686V16.3575H18.5961V13.7025H21.2511V12.375Z" fill="white"/>
</svg>
