<svg width="204" height="258" viewBox="0 0 204 258" fill="none" xmlns="http://www.w3.org/2000/svg">
<g filter="url(#filter0_d_28_160)">
<path d="M102 0C76.0182 0.0307185 51.1094 10.3881 32.7375 28.8002C14.3656 47.2123 4.03076 72.1757 4.0001 98.2143C3.96899 119.493 10.9045 140.194 23.7426 157.143C23.7426 157.143 26.4154 160.67 26.8519 161.179L102 250L177.184 161.134C177.576 160.661 180.257 157.143 180.257 157.143L180.266 157.116C193.098 140.175 200.03 119.483 200 98.2143C199.969 72.1757 189.634 47.2123 171.263 28.8002C152.891 10.3881 127.982 0.0307185 102 0Z" fill="#BCA58A"/>
<path d="M77.6563 101.938C75.1036 101.938 72.6083 102.694 70.4859 104.113C68.3635 105.531 66.7093 107.546 65.7324 109.905C64.7556 112.263 64.5 114.858 64.998 117.362C65.496 119.865 66.7252 122.165 68.5302 123.97C70.3351 125.775 72.6348 127.004 75.1384 127.502C77.6419 128 80.237 127.744 82.5953 126.768C84.9536 125.791 86.9693 124.137 88.3874 122.014C89.8056 119.892 90.5625 117.396 90.5625 114.844C90.5625 111.421 89.2027 108.138 86.7824 105.718C84.362 103.297 81.0792 101.938 77.6563 101.938Z" fill="white"/>
<path d="M134.812 105.625H105.312C103.357 105.627 101.482 106.405 100.1 107.787C98.7171 109.17 97.9395 111.045 97.9375 113V135.125H57.375V98.25H50V157.25H57.375V142.5H145.875V157.25H153.25V124.062C153.244 119.174 151.3 114.488 147.843 111.032C144.387 107.575 139.701 105.631 134.812 105.625Z" fill="white"/>
<path d="M120.062 68.75H105.312V54H97.9375V68.75H83.1875V76.125H97.9375V90.875H105.312V76.125H120.062V68.75Z" fill="white"/>
</g>
<defs>
<filter id="filter0_d_28_160" x="0" y="0" width="204" height="258" filterUnits="userSpaceOnUse" color-interpolation-filters="sRGB">
<feFlood flood-opacity="0" result="BackgroundImageFix"/>
<feColorMatrix in="SourceAlpha" type="matrix" values="0 0 0 0 0 0 0 0 0 0 0 0 0 0 0 0 0 0 127 0" result="hardAlpha"/>
<feOffset dy="4"/>
<feGaussianBlur stdDeviation="2"/>
<feComposite in2="hardAlpha" operator="out"/>
<feColorMatrix type="matrix" values="0 0 0 0 0 0 0 0 0 0 0 0 0 0 0 0 0 0 0.25 0"/>
<feBlend mode="normal" in2="BackgroundImageFix" result="effect1_dropShadow_28_160"/>
<feBlend mode="normal" in="SourceGraphic" in2="effect1_dropShadow_28_160" result="shape"/>
</filter>
</defs>
</svg>
