<svg width="40" height="40" viewBox="0 0 40 40" fill="none" xmlns="http://www.w3.org/2000/svg">
<path d="M25.3322 0.000488281C24.9642 0.000488281 24.6655 0.299162 24.6655 0.667133C24.6655 1.0351 24.9642 1.33378 25.3322 1.33378C32.6842 1.33378 38.6656 7.31514 38.6656 14.6672C38.6656 15.0352 38.9643 15.3339 39.3323 15.3339C39.7009 15.3339 39.9989 15.0352 39.9989 14.6672C39.9989 6.5799 33.4196 0.000488281 25.3322 0.000488281Z" fill="white"/>
<path d="M25.3322 4C24.9642 4 24.6655 4.29867 24.6655 4.66664C24.6655 5.03462 24.9642 5.33329 25.3322 5.33329C30.4788 5.33329 34.6656 9.51995 34.6656 14.6667C34.6656 15.0347 34.9643 15.3333 35.3322 15.3333C35.7009 15.3333 35.9989 15.0347 35.9989 14.6667C35.9989 8.78542 31.2142 4 25.3322 4Z" fill="white"/>
<path d="M25.3324 8C24.9644 8 24.6658 8.29867 24.6658 8.66664C24.6658 9.03462 24.9644 9.33329 25.3324 9.33329C28.2731 9.33329 30.6658 11.726 30.6658 14.6667C30.6658 15.0347 30.9645 15.3333 31.3325 15.3333C31.7011 15.3333 31.9991 15.0347 31.9991 14.6667C31.9991 10.9907 29.0084 8 25.3324 8Z" fill="white"/>
<path d="M36.0755 25.0169C34.2615 24.7782 32.4728 24.3329 30.7594 23.6949C29.1001 23.0728 27.2147 23.4742 25.9521 24.7202L23.8447 26.8229C19.426 24.2175 15.7347 20.5335 13.1233 16.1235L15.232 14.0195C16.4787 12.7615 16.8813 10.8781 16.258 9.22282C15.6187 7.51219 15.1727 5.72749 14.9327 3.91076C14.6133 1.65872 12.6633 -0.00863826 10.384 3.3671e-05H4.55131C4.4153 3.3671e-05 4.27928 0.00667434 4.14467 0.0187057C2.93326 0.128081 1.83661 0.702069 1.05723 1.63411C0.277928 2.56677 -0.0914492 3.74678 0.0192546 4.96741C0.665274 11.0395 2.76529 16.9575 6.08867 22.0775C9.10603 26.8162 13.2107 30.9129 17.9541 33.9209C23.0648 37.2289 28.9668 39.3243 35.0355 39.9823C35.1728 39.9943 35.3108 40.0003 35.4495 40.0003C35.4535 40.0003 35.4574 40.0003 35.4621 40.0003C37.9742 39.9896 40.0088 37.9416 39.9988 35.4369V29.6242C40.0515 27.3196 38.3688 25.3396 36.0755 25.0169ZM38.6655 29.6002C38.6655 29.6055 38.6655 29.6115 38.6655 29.6169V35.4402C38.6721 37.2123 37.2328 38.6603 35.4575 38.6676C35.3535 38.6636 35.2535 38.6636 35.1655 38.6556C29.3162 38.0209 23.6147 35.9969 18.6727 32.7982C14.0887 29.8908 10.126 25.9361 7.21 21.3561C3.99725 16.4069 1.96927 10.6908 1.3459 4.83678C1.26856 3.98209 1.52926 3.1488 2.0806 2.48942C2.63193 1.83004 3.40724 1.4241 4.26459 1.34676C4.35991 1.33809 4.4553 1.3334 4.55124 1.3334H10.3899C10.4006 1.3334 10.4113 1.3334 10.422 1.3334C12.0193 1.3334 13.388 2.51677 13.6113 4.09139C13.8639 6.0014 14.334 7.88539 15.0093 9.69142C15.45 10.8621 15.1653 12.1928 14.2872 13.0788L11.8179 15.5428C11.6046 15.7554 11.5606 16.0835 11.7092 16.3448C14.5346 21.3049 18.6553 25.4169 23.624 28.2362C23.8853 28.3849 24.212 28.3396 24.424 28.1283L26.8907 25.6669C27.782 24.7876 29.1173 24.5042 30.292 24.9442C32.1 25.6176 33.9874 26.0876 35.8947 26.3382C37.5148 26.5662 38.7061 27.9683 38.6655 29.6002Z" fill="white"/>
<path d="M9.99989 2.6665H4.55119C4.49517 2.6665 4.43986 2.66916 4.38454 2.67447C3.70524 2.7358 3.28985 3.12112 3.10321 3.34448C2.95321 3.52377 2.61055 4.01315 2.67055 4.68519C2.92258 7.04989 3.37852 9.35053 4.0272 11.5239C4.11384 11.8126 4.37853 11.9999 4.66587 11.9999C4.72923 11.9999 4.79322 11.9912 4.8572 11.972C5.20986 11.8666 5.41057 11.4953 5.30517 11.1427C4.67986 9.04795 4.23986 6.82794 3.99782 4.55527C3.98251 4.38597 4.09251 4.23995 4.12649 4.19862C4.18118 4.13331 4.30314 4.02065 4.55119 3.99995H9.99856C9.99926 3.99995 9.99926 3.99995 9.99926 3.99995C10.3672 3.99995 10.6659 3.70198 10.6659 3.33393C10.6665 2.9658 10.3679 2.6665 9.99989 2.6665Z" fill="white"/>
<path d="M36.6654 29.333C36.2974 29.333 35.9987 29.6317 35.9987 29.9997L35.998 35.439C35.9987 35.589 35.9414 35.7303 35.8367 35.8356C35.732 35.9409 35.5933 35.999 35.4614 35.9996L35.4001 35.9983C33.1221 35.7509 30.9207 35.3123 28.8574 34.6943C28.506 34.5883 28.1334 34.789 28.0274 35.1416C27.9213 35.4943 28.122 35.8656 28.4747 35.9716C30.6154 36.613 32.8974 37.0677 35.2681 37.325C35.3228 37.3303 35.4341 37.333 35.4501 37.333C35.9548 37.3309 36.4281 37.133 36.7835 36.775C37.1388 36.4163 37.3335 35.9403 37.3315 35.4363L37.3321 29.9997C37.3321 29.6317 37.0334 29.333 36.6654 29.333Z" fill="white"/>
</svg>
