<svg width="40" height="40" viewBox="0 0 40 40" fill="none" xmlns="http://www.w3.org/2000/svg">
<path d="M39.992 15.2914C39.9878 15.2455 39.9787 15.2001 39.9646 15.1561C39.9555 15.1168 39.9427 15.0785 39.9266 15.0414C39.908 15.0053 39.8856 14.971 39.86 14.9394C39.8343 14.9018 39.8045 14.8672 39.7713 14.836C39.7606 14.8267 39.756 14.814 39.7447 14.8047L33.333 9.82515V4.66426C33.333 3.55967 32.4375 2.66416 31.3329 2.66416H24.1079L21.215 0.418029C20.5003 -0.139343 19.4982 -0.139343 18.7835 0.418029L15.89 2.66416H8.66497C7.56038 2.66416 6.66487 3.55959 6.66487 4.66426V9.82523L0.255247 14.8048C0.243919 14.8142 0.239231 14.8268 0.228605 14.8361C0.195401 14.8672 0.165633 14.9019 0.139929 14.9395C0.114303 14.9711 0.0919578 15.0053 0.073285 15.0415C0.0571123 15.0785 0.0444554 15.1169 0.0353143 15.1562C0.0214073 15.1996 0.0122662 15.2443 0.00796915 15.2896C0.00796915 15.3036 0 15.3156 0 15.3296V37.9992C0.000937548 38.4233 0.138132 38.8358 0.391348 39.1759C0.395333 39.182 0.396036 39.1893 0.400645 39.1946C0.405333 39.1999 0.415334 39.2059 0.421975 39.2133C0.796525 39.7061 1.37905 39.9967 1.99807 39.9993H37.9999C38.6213 39.9975 39.2063 39.7055 39.5813 39.21C39.5866 39.2034 39.5947 39.2013 39.5993 39.1947C39.604 39.188 39.6046 39.182 39.6087 39.176C39.8619 38.8358 39.9991 38.4233 40 37.9993V15.3314C39.9999 15.3175 39.9927 15.3054 39.992 15.2914ZM19.5989 1.47004C19.8317 1.28503 20.1614 1.28503 20.3942 1.47004L21.9323 2.66408H18.0654L19.5989 1.47004ZM2.16605 38.666L19.599 25.1246C19.8319 24.9399 20.1614 24.9399 20.3943 25.1246L37.8318 38.666H2.16605ZM38.6666 37.6266L21.215 24.0725C20.5002 23.5156 19.4983 23.5156 18.7835 24.0725L1.33132 37.6266V16.3468L12.2566 24.8306C12.5477 25.0563 12.9666 25.0033 13.1923 24.7122C13.418 24.4211 13.3651 24.0022 13.0739 23.7765L1.97471 15.1581L6.66495 11.5132V16.6648C6.66495 17.033 6.96348 17.3315 7.33162 17.3315C7.69984 17.3315 7.9983 17.0329 7.9983 16.6648V4.66418C7.9983 4.29596 8.29675 3.99751 8.66497 3.99751H31.3328C31.701 3.99751 31.9994 4.29596 31.9994 4.66418V16.6648C31.9994 17.033 32.2979 17.3315 32.6661 17.3315C33.0343 17.3315 33.3328 17.0329 33.3328 16.6648V11.5132L38.023 15.1581L26.9045 23.7919C26.7132 23.9368 26.6146 24.1734 26.6463 24.4113C26.678 24.6492 26.8351 24.8517 27.0577 24.9415C27.2803 25.0312 27.534 24.9945 27.7219 24.8452L38.6664 16.3468V37.6266H38.6666Z" fill="white"/>
<path d="M27.9991 15.9977V13.331C27.9991 8.91247 24.4172 5.33057 19.9987 5.33057C15.5802 5.33057 11.9983 8.91247 11.9983 13.331C11.9983 17.7495 15.5802 21.3314 19.9987 21.3314C20.3669 21.3314 20.6654 21.0329 20.6654 20.6647C20.6654 20.2965 20.3669 19.998 19.9987 19.998C16.3166 19.998 13.3317 17.0131 13.3317 13.3311C13.3317 9.64899 16.3166 6.66407 19.9987 6.66407C23.6808 6.66407 26.6657 9.64899 26.6657 13.3311V15.9978C26.6657 16.7343 26.0687 17.3313 25.3322 17.3313C24.5958 17.3313 23.9988 16.7343 23.9988 15.9978V13.3311C23.9988 12.9628 23.7004 12.6644 23.3321 12.6644C22.9639 12.6644 22.6655 12.9628 22.6655 13.3311C22.6655 14.8039 21.4715 15.9978 19.9987 15.9978C18.5259 15.9978 17.3319 14.8039 17.3319 13.3311C17.3319 11.8582 18.5259 10.6643 19.9987 10.6643C20.3669 10.6643 20.6654 10.3658 20.6654 9.9976C20.6654 9.62938 20.3669 9.33093 19.9987 9.33093C18.2084 9.32694 16.6334 10.513 16.1427 12.2348C15.6521 13.9566 16.3652 15.7948 17.8887 16.7351C19.4122 17.6755 21.3749 17.4891 22.6941 16.2786C22.8393 17.6885 24.0648 18.7369 25.4801 18.6619C26.8956 18.5869 28.0036 17.4152 27.9991 15.9977Z" fill="white"/>
</svg>
