<svg width="40" height="40" viewBox="0 0 40 40" fill="none" xmlns="http://www.w3.org/2000/svg">
<path d="M26.1707 26.1518C26.2586 26.026 26.3464 25.9024 26.4342 25.7742C30.3844 20.0172 32.3722 14.9811 32.3437 10.8076C32.3262 7.93625 31.0183 5.18772 28.7058 3.16261C26.3932 1.13751 23.2642 0.000486635 20.0023 1.5617e-07C16.7404 -0.000486322 13.6109 1.1356 11.2976 3.16002C8.98429 5.18443 7.6753 7.93258 7.65665 10.8039C7.62776 14.9811 9.61597 20.0179 13.5662 25.7742C13.654 25.9024 13.7418 26.026 13.8297 26.1518C5.51331 27.0565 0 29.673 0 32.7794C0 36.6795 8.78327 39.7344 20 39.7344C31.2167 39.7344 40 36.6795 40 32.7794C40 29.673 34.4867 27.0565 26.1707 26.1518V26.1518ZM8.98745 10.8076C8.9792 9.52975 9.25804 8.26304 9.80791 7.08037C10.3578 5.89769 11.1679 4.82238 12.1915 3.91629C13.2152 3.0102 14.4323 2.2912 15.7727 1.80066C17.1132 1.31012 18.5506 1.05772 20.0023 1.05796C21.454 1.0582 22.8913 1.31109 24.2315 1.80208C25.5718 2.29307 26.7885 3.01247 27.8118 3.9189C28.8351 4.82533 29.6447 5.90091 30.1941 7.08377C30.7434 8.26663 31.0217 9.53343 31.0129 10.8113C31.07 19.1316 22.2335 29.3935 20 31.8543C17.7665 29.3935 8.92966 19.1312 8.98745 10.8076V10.8076ZM20 38.5629C8.83232 38.5629 1.3308 35.5723 1.3308 32.7794C1.3308 30.3026 6.89316 27.9981 14.6137 27.2507C16.1069 29.303 17.7362 31.2761 19.4932 33.1597C19.5555 33.2244 19.6332 33.2764 19.7207 33.3121C19.8083 33.3478 19.9035 33.3663 20 33.3663C20.0965 33.3663 20.1917 33.3478 20.2793 33.3121C20.3668 33.2764 20.4445 33.2244 20.5068 33.1597C22.2639 31.2761 23.8934 29.303 25.3867 27.2507C33.1053 27.9981 38.6696 30.3012 38.6696 32.7794C38.6692 35.5723 31.1677 38.5629 20 38.5629Z" fill="white"/>
<path d="M14.5598 35.1699C11.607 34.8372 9.23662 34.2514 7.88757 33.5214C7.81312 33.4795 7.72993 33.4511 7.64287 33.4378C7.55581 33.4245 7.46661 33.4266 7.38049 33.444C7.29436 33.4614 7.21303 33.4937 7.14124 33.539C7.06945 33.5844 7.00864 33.6419 6.96235 33.7081C6.91607 33.7744 6.88524 33.8481 6.87167 33.925C6.85809 34.0018 6.86205 34.0803 6.88329 34.1558C6.90454 34.2313 6.94266 34.3023 6.99542 34.3647C7.04819 34.4271 7.11454 34.4796 7.19061 34.5192C8.69745 35.3346 11.2549 35.9785 14.391 36.3317C14.4192 36.3349 14.4477 36.3364 14.4762 36.3363C14.6448 36.3356 14.8069 36.2785 14.9296 36.1767C15.0522 36.0748 15.1264 35.9357 15.137 35.7875C15.1476 35.6393 15.0939 35.4931 14.9868 35.3785C14.8796 35.2638 14.727 35.1893 14.5598 35.1699V35.1699Z" fill="white"/>
<path d="M21.1179 35.4501C20.1905 35.4688 19.2248 35.4645 18.2822 35.434C18.1948 35.4312 18.1076 35.4435 18.0257 35.4703C17.9437 35.4971 17.8685 35.5379 17.8045 35.5903C17.7404 35.6427 17.6887 35.7057 17.6523 35.7756C17.6159 35.8456 17.5955 35.9212 17.5922 35.9981C17.589 36.0751 17.6031 36.1518 17.6335 36.2239C17.664 36.2961 17.7103 36.3623 17.7698 36.4187C17.8293 36.475 17.9009 36.5206 17.9804 36.5526C18.0599 36.5847 18.1457 36.6026 18.2331 36.6055C18.8179 36.6242 19.4118 36.6339 20.0004 36.6339C20.3875 36.6339 20.7704 36.6299 21.1491 36.6219C21.3255 36.6183 21.4931 36.5531 21.6149 36.4408C21.7368 36.3284 21.803 36.1781 21.7989 36.0227C21.798 35.9455 21.7795 35.8692 21.7446 35.7983C21.7097 35.7274 21.659 35.6634 21.5955 35.6101C21.5321 35.5567 21.4571 35.515 21.3751 35.4876C21.2931 35.4601 21.2056 35.4473 21.1179 35.4501V35.4501Z" fill="white"/>
<path d="M25.6186 10.8075C25.6185 9.82923 25.2888 8.87295 24.6713 8.05961C24.0537 7.24626 23.1761 6.61238 22.1493 6.23811C21.1225 5.86385 19.9928 5.76601 18.9028 5.95697C17.8129 6.14793 16.8117 6.61911 16.026 7.31093C15.2402 8.00275 14.7052 8.88414 14.4885 9.84364C14.2718 10.8031 14.3832 11.7977 14.8085 12.7015C15.2339 13.6052 15.9542 14.3777 16.8782 14.9211C17.8023 15.4646 18.8887 15.7546 20 15.7545C21.4898 15.7529 22.918 15.2312 23.9714 14.3038C25.0247 13.3763 25.6171 12.119 25.6186 10.8075V10.8075ZM15.7118 10.8075C15.7119 10.0609 15.9636 9.33117 16.4349 8.71049C16.9061 8.0898 17.5759 7.60607 18.3595 7.32046C19.1431 7.03485 20.0053 6.96019 20.8371 7.10592C21.6688 7.25165 22.4329 7.61123 23.0325 8.13918C23.6321 8.66713 24.0405 9.33975 24.2059 10.072C24.3713 10.8042 24.2863 11.5632 23.9617 12.2529C23.6371 12.9426 23.0875 13.5322 22.3823 13.9469C21.6772 14.3617 20.8481 14.5831 20 14.5831C18.8629 14.582 17.7728 14.1838 16.9689 13.476C16.1649 12.7682 15.7128 11.8085 15.7118 10.8075V10.8075Z" fill="white"/>
</svg>
