<svg width="33" height="18" viewBox="0 0 33 18" fill="none" xmlns="http://www.w3.org/2000/svg">
<path fill-rule="evenodd" clip-rule="evenodd" d="M0.285706 0.713756C0.285706 0.55051 0.379774 0.39395 0.547217 0.278518C0.714661 0.163085 0.941762 0.0982361 1.17856 0.0982361H31.5357C31.7725 0.0982361 31.9996 0.163085 32.167 0.278518C32.3345 0.39395 32.4286 0.55051 32.4286 0.713756C32.4286 0.877002 32.3345 1.03356 32.167 1.14899C31.9996 1.26443 31.7725 1.32928 31.5357 1.32928H1.17856C0.941762 1.32928 0.714661 1.26443 0.547217 1.14899C0.379774 1.03356 0.285706 0.877002 0.285706 0.713756Z" fill="white"/>
<path fill-rule="evenodd" clip-rule="evenodd" d="M0.285706 8.71549C0.285706 8.55225 0.379774 8.39569 0.547217 8.28026C0.714661 8.16482 0.941762 8.09998 1.17856 8.09998H31.5357C31.7725 8.09998 31.9996 8.16482 32.167 8.28026C32.3345 8.39569 32.4286 8.55225 32.4286 8.71549C32.4286 8.87874 32.3345 9.0353 32.167 9.15073C31.9996 9.26616 31.7725 9.33101 31.5357 9.33101H1.17856C0.941762 9.33101 0.714661 9.26616 0.547217 9.15073C0.379774 9.0353 0.285706 8.87874 0.285706 8.71549Z" fill="white"/>
<path fill-rule="evenodd" clip-rule="evenodd" d="M0.285706 16.7172C0.285706 16.554 0.379774 16.3974 0.547217 16.282C0.714661 16.1666 0.941762 16.1017 1.17856 16.1017H31.5357C31.7725 16.1017 31.9996 16.1666 32.167 16.282C32.3345 16.3974 32.4286 16.554 32.4286 16.7172C32.4286 16.8805 32.3345 17.037 32.167 17.1525C31.9996 17.2679 31.7725 17.3328 31.5357 17.3328H1.17856C0.941762 17.3328 0.714661 17.2679 0.547217 17.1525C0.379774 17.037 0.285706 16.8805 0.285706 16.7172Z" fill="white"/>
</svg>
