<svg width="265" height="121" viewBox="0 0 265 121" fill="none" xmlns="http://www.w3.org/2000/svg">
<rect x="70.5" y="68.5" width="194" height="52" rx="24.5" fill="white" fill-opacity="0.3" stroke="#2F416B"/>
<path d="M134.132 85.1953V83.54H150.26V85.1953H143.316V105H141.075V85.1953H134.132ZM157.848 96.958L150.348 83.5547H152.662L158.932 95.0098L165.187 83.5547H167.486L159.986 96.9727V105H157.848V96.958ZM169.596 105V83.5547H175.909C179.405 83.5547 181.871 83.9941 183.307 84.873C184.742 85.7422 185.46 87.2607 185.46 89.4287C185.46 90.4248 185.333 91.2793 185.079 91.9922C184.835 92.6953 184.464 93.291 183.966 93.7793C183.468 94.2676 182.789 94.6533 181.93 94.9365C181.08 95.21 180.108 95.4053 179.015 95.5225C177.921 95.6396 176.598 95.6982 175.045 95.6982H171.793V105H169.596ZM171.881 85.2246V94.043H175.865C176.979 94.043 177.921 94.0039 178.692 93.9258C179.464 93.8379 180.157 93.6963 180.772 93.501C181.388 93.3057 181.871 93.0371 182.223 92.6953C182.574 92.3535 182.838 91.9287 183.014 91.4209C183.199 90.9033 183.292 90.2783 183.292 89.5459C183.292 88.8135 183.199 88.1982 183.014 87.7002C182.828 87.1924 182.555 86.7773 182.193 86.4551C181.842 86.123 181.344 85.8691 180.699 85.6934C180.055 85.5176 179.337 85.3955 178.546 85.3271C177.755 85.2588 176.764 85.2246 175.572 85.2246H171.881ZM196.915 105H194.776V83.5547H196.915V105ZM203.712 105H201.573V83.5547H203.712V105Z" fill="white"/>
<path d="M2 2L97 97" stroke="#2F416B" stroke-width="3"/>
<circle cx="94" cy="95" r="10.5" fill="#2F416B" stroke="white" stroke-width="3"/>
</svg>
