<svg width="259" height="124" viewBox="0 0 259 124" fill="none" xmlns="http://www.w3.org/2000/svg">
<rect x="0.5" y="0.5" width="194" height="52" rx="24.5" fill="white" fill-opacity="0.3" stroke="#2F416B"/>
<path d="M53.1318 16.1953V14.54H69.2598V16.1953H62.3164V36H60.0752V16.1953H53.1318ZM76.8477 27.958L69.3477 14.5547H71.6621L77.9316 26.0098L84.1865 14.5547H86.4863L78.9863 27.9727V36H76.8477V27.958ZM88.5957 36V14.5547H94.9092C98.4053 14.5547 100.871 14.9941 102.307 15.873C103.742 16.7422 104.46 18.2607 104.46 20.4287C104.46 21.4248 104.333 22.2793 104.079 22.9922C103.835 23.6953 103.464 24.291 102.966 24.7793C102.468 25.2676 101.789 25.6533 100.93 25.9365C100.08 26.21 99.1084 26.4053 98.0146 26.5225C96.9209 26.6396 95.5977 26.6982 94.0449 26.6982H90.793V36H88.5957ZM90.8809 16.2246V25.043H94.8652C95.9785 25.043 96.9209 25.0039 97.6924 24.9258C98.4639 24.8379 99.1572 24.6963 99.7725 24.501C100.388 24.3057 100.871 24.0371 101.223 23.6953C101.574 23.3535 101.838 22.9287 102.014 22.4209C102.199 21.9033 102.292 21.2783 102.292 20.5459C102.292 19.8135 102.199 19.1982 102.014 18.7002C101.828 18.1924 101.555 17.7773 101.193 17.4551C100.842 17.123 100.344 16.8691 99.6992 16.6934C99.0547 16.5176 98.3369 16.3955 97.5459 16.3271C96.7549 16.2588 95.7637 16.2246 94.5723 16.2246H90.8809ZM115.915 36H113.776V14.5547H115.915V36Z" fill="white"/>
<path d="M162 27L257 122" stroke="#2F416B" stroke-width="3"/>
<circle cx="162" cy="28" r="10.5" fill="#2F416B" stroke="white" stroke-width="3"/>
</svg>
